  0
SECTION
  2
HEADER
  9
$ACADVER
  1
AC1024
  9
$ACADMAINTVER
 70
6
  9
$DWGCODEPAGE
  3
ANSI_1252
  9
$LASTSAVEDBY
  1
ezdxf
  9
$INSBASE
 10
0.0
 20
0.0
 30
0.0
  9
$EXTMIN
 10
1e+20
 20
1e+20
 30
1e+20
  9
$EXTMAX
 10
-1e+20
 20
-1e+20
 30
-1e+20
  9
$LIMMIN
 10
0.0
 20
0.0
  9
$LIMMAX
 10
420.0
 20
297.0
  9
$ORTHOMODE
 70
0
  9
$REGENMODE
 70
1
  9
$FILLMODE
 70
1
  9
$QTEXTMODE
 70
0
  9
$MIRRTEXT
 70
1
  9
$LTSCALE
 40
1.0
  9
$ATTMODE
 70
1
  9
$TEXTSIZE
 40
2.5
  9
$TRACEWID
 40
1.0
  9
$TEXTSTYLE
  7
OpenSans
  9
$CLAYER
  8
0
  9
$CELTYPE
  6
ByLayer
  9
$CECOLOR
 62
256
  9
$CELTSCALE
 40
1.0
  9
$DISPSILH
 70
0
  9
$DIMSCALE
 40
1.0
  9
$DIMASZ
 40
0.175
  9
$DIMEXO
 40
0.125
  9
$DIMDLI
 40
3.75
  9
$DIMRND
 40
0.0
  9
$DIMDLE
 40
0.0
  9
$DIMEXE
 40
0.375
  9
$DIMTP
 40
0.0
  9
$DIMTM
 40
0.0
  9
$DIMTXT
 40
0.25
  9
$DIMCEN
 40
2.5
  9
$DIMTSZ
 40
0.0
  9
$DIMTOL
 70
0
  9
$DIMLIM
 70
0
  9
$DIMTIH
 70
0
  9
$DIMTOH
 70
0
  9
$DIMSE1
 70
0
  9
$DIMSE2
 70
0
  9
$DIMTAD
 70
1
  9
$DIMZIN
 70
12
  9
$DIMBLK
  1
ARCHTICK
  9
$DIMASO
 70
1
  9
$DIMSHO
 70
1
  9
$DIMPOST
  1

  9
$DIMAPOST
  1

  9
$DIMALT
 70
0
  9
$DIMALTD
 70
3
  9
$DIMALTF
 40
0.03937007874
  9
$DIMLFAC
 40
100.0
  9
$DIMTOFL
 70
1
  9
$DIMTVP
 40
0.0
  9
$DIMTIX
 70
0
  9
$DIMSOXD
 70
0
  9
$DIMSAH
 70
0
  9
$DIMBLK1
  1

  9
$DIMBLK2
  1

  9
$DIMSTYLE
  2
EZDXF
  9
$DIMCLRD
 70
0
  9
$DIMCLRE
 70
0
  9
$DIMCLRT
 70
0
  9
$DIMTFAC
 40
0.5
  9
$DIMGAP
 40
0.1
  9
$DIMJUST
 70
0
  9
$DIMSD1
 70
0
  9
$DIMSD2
 70
0
  9
$DIMTOLJ
 70
0
  9
$DIMTZIN
 70
8
  9
$DIMALTZ
 70
0
  9
$DIMALTTZ
 70
0
  9
$DIMUPT
 70
1
  9
$DIMDEC
 70
2
  9
$DIMTDEC
 70
2
  9
$DIMALTU
 70
2
  9
$DIMALTTD
 70
3
  9
$DIMTXSTY
  7
OpenSansCondensed-Light
  9
$DIMAUNIT
 70
0
  9
$DIMADEC
 70
2
  9
$DIMALTRND
 40
0.0
  9
$DIMAZIN
 70
3
  9
$DIMDSEP
 70
46
  9
$DIMATFIT
 70
3
  9
$DIMFRAC
 70
0
  9
$DIMLDRBLK
  1

  9
$DIMLUNIT
 70
2
  9
$DIMLWD
 70
-2
  9
$DIMLWE
 70
-2
  9
$DIMTMOVE
 70
2
  9
$DIMFXL
 40
1.0
  9
$DIMFXLON
 70
0
  9
$DIMJOGANG
 40
0.785398163397
  9
$DIMTFILL
 70
0
  9
$DIMTFILLCLR
 70
0
  9
$DIMARCSYM
 70
0
  9
$DIMLTYPE
  6

  9
$DIMLTEX1
  6

  9
$DIMLTEX2
  6

  9
$DIMTXTDIRECTION
 70
0
  9
$LUNITS
 70
2
  9
$LUPREC
 70
4
  9
$SKETCHINC
 40
1.0
  9
$FILLETRAD
 40
10.0
  9
$AUNITS
 70
0
  9
$AUPREC
 70
2
  9
$MENU
  1
.
  9
$ELEVATION
 40
0.0
  9
$PELEVATION
 40
0.0
  9
$THICKNESS
 40
0.0
  9
$LIMCHECK
 70
0
  9
$CHAMFERA
 40
0.0
  9
$CHAMFERB
 40
0.0
  9
$CHAMFERC
 40
0.0
  9
$CHAMFERD
 40
0.0
  9
$SKPOLY
 70
0
  9
$TDCREATE
 40
2461323.0176273147
  9
$TDUCREATE
 40
2458532.153996898
  9
$TDUPDATE
 40
2461323.017685185
  9
$TDUUPDATE
 40
2458532.1544311
  9
$TDINDWG
 40
0.0
  9
$TDUSRTIMER
 40
0.0
  9
$USRTIMER
 70
1
  9
$ANGBASE
 50
0.0
  9
$ANGDIR
 70
0
  9
$PDMODE
 70
0
  9
$PDSIZE
 40
0.0
  9
$PLINEWID
 40
0.0
  9
$SPLFRAME
 70
0
  9
$SPLINETYPE
 70
6
  9
$SPLINESEGS
 70
8
  9
$HANDSEED
  5
112
  9
$SURFTAB1
 70
6
  9
$SURFTAB2
 70
6
  9
$SURFTYPE
 70
6
  9
$SURFU
 70
6
  9
$SURFV
 70
6
  9
$UCSBASE
  2

  9
$UCSNAME
  2

  9
$UCSORG
 10
0.0
 20
0.0
 30
0.0
  9
$UCSXDIR
 10
1.0
 20
0.0
 30
0.0
  9
$UCSYDIR
 10
0.0
 20
1.0
 30
0.0
  9
$UCSORTHOREF
  2

  9
$UCSORTHOVIEW
 70
0
  9
$UCSORGTOP
 10
0.0
 20
0.0
 30
0.0
  9
$UCSORGBOTTOM
 10
0.0
 20
0.0
 30
0.0
  9
$UCSORGLEFT
 10
0.0
 20
0.0
 30
0.0
  9
$UCSORGRIGHT
 10
0.0
 20
0.0
 30
0.0
  9
$UCSORGFRONT
 10
0.0
 20
0.0
 30
0.0
  9
$UCSORGBACK
 10
0.0
 20
0.0
 30
0.0
  9
$PUCSBASE
  2

  9
$PUCSNAME
  2

  9
$PUCSORG
 10
0.0
 20
0.0
 30
0.0
  9
$PUCSXDIR
 10
1.0
 20
0.0
 30
0.0
  9
$PUCSYDIR
 10
0.0
 20
1.0
 30
0.0
  9
$PUCSORTHOREF
  2

  9
$PUCSORTHOVIEW
 70
0
  9
$PUCSORGTOP
 10
0.0
 20
0.0
 30
0.0
  9
$PUCSORGBOTTOM
 10
0.0
 20
0.0
 30
0.0
  9
$PUCSORGLEFT
 10
0.0
 20
0.0
 30
0.0
  9
$PUCSORGRIGHT
 10
0.0
 20
0.0
 30
0.0
  9
$PUCSORGFRONT
 10
0.0
 20
0.0
 30
0.0
  9
$PUCSORGBACK
 10
0.0
 20
0.0
 30
0.0
  9
$USERI1
 70
0
  9
$USERI2
 70
0
  9
$USERI3
 70
0
  9
$USERI4
 70
0
  9
$USERI5
 70
0
  9
$USERR1
 40
0.0
  9
$USERR2
 40
0.0
  9
$USERR3
 40
0.0
  9
$USERR4
 40
0.0
  9
$USERR5
 40
0.0
  9
$WORLDVIEW
 70
1
  9
$SHADEDGE
 70
3
  9
$SHADEDIF
 70
70
  9
$TILEMODE
 70
1
  9
$MAXACTVP
 70
64
  9
$PINSBASE
 10
0.0
 20
0.0
 30
0.0
  9
$PLIMCHECK
 70
0
  9
$PEXTMIN
 10
1e+20
 20
1e+20
 30
1e+20
  9
$PEXTMAX
 10
-1e+20
 20
-1e+20
 30
-1e+20
  9
$PLIMMIN
 10
-20.0
 20
-5.0
  9
$PLIMMAX
 10
400.0
 20
292.0
  9
$UNITMODE
 70
0
  9
$VISRETAIN
 70
1
  9
$PLINEGEN
 70
0
  9
$PSLTSCALE
 70
1
  9
$TREEDEPTH
 70
3020
  9
$CMLSTYLE
  2
Standard
  9
$CMLJUST
 70
0
  9
$CMLSCALE
 40
20.0
  9
$PROXYGRAPHICS
 70
1
  9
$MEASUREMENT
 70
1
  9
$CELWEIGHT
370
-1
  9
$ENDCAPS
280
0
  9
$JOINSTYLE
280
0
  9
$LWDISPLAY
290
0
  9
$INSUNITS
 70
6
  9
$HYPERLINKBASE
  1

  9
$STYLESHEET
  1

  9
$XEDIT
290
1
  9
$CEPSNTYPE
380
0
  9
$PSTYLEMODE
290
1
  9
$FINGERPRINTGUID
  2
{B4F0836D-0A42-4391-A106-9B708FCD3ED3}
  9
$VERSIONGUID
  2
{5A6CF8B4-6253-40BC-BE0A-5041D9B68078}
  9
$EXTNAMES
290
1
  9
$PSVPSCALE
 40
0.0
  9
$OLESTARTUP
290
0
  9
$SORTENTS
280
127
  9
$INDEXCTL
280
0
  9
$HIDETEXT
280
1
  9
$XCLIPFRAME
280
1
  9
$HALOGAP
280
0
  9
$OBSCOLOR
 70
257
  9
$OBSLTYPE
280
0
  9
$INTERSECTIONDISPLAY
280
0
  9
$INTERSECTIONCOLOR
 70
257
  9
$DIMASSOC
280
2
  9
$PROJECTNAME
  1

  9
$CAMERADISPLAY
290
0
  9
$LENSLENGTH
 40
50.0
  9
$CAMERAHEIGHT
 40
0.0
  9
$STEPSPERSEC
 40
24.0
  9
$STEPSIZE
 40
100.0
  9
$3DDWFPREC
 40
2.0
  9
$PSOLWIDTH
 40
0.005
  9
$PSOLHEIGHT
 40
0.08
  9
$LOFTANG1
 40
1.570796326795
  9
$LOFTANG2
 40
1.570796326795
  9
$LOFTMAG1
 40
0.0
  9
$LOFTMAG2
 40
0.0
  9
$LOFTPARAM
 70
7
  9
$LOFTNORMALS
280
1
  9
$LATITUDE
 40
37.795
  9
$LONGITUDE
 40
-122.394
  9
$NORTHDIRECTION
 40
0.0
  9
$TIMEZONE
 70
-8000
  9
$LIGHTGLYPHDISPLAY
280
1
  9
$TILEMODELIGHTSYNCH
280
1
  9
$CMATERIAL
347
20
  9
$SOLIDHIST
280
0
  9
$SHOWHIST
280
1
  9
$DWFFRAME
280
2
  9
$DGNFRAME
280
2
  9
$REALWORLDSCALE
290
1
  9
$INTERFERECOLOR
 62
256
  9
$CSHADOW
280
0
  9
$SHADOWPLANELOCATION
 40
0.0
  0
ENDSEC
  0
SECTION
  2
CLASSES
  0
CLASS
  1
ACDBDICTIONARYWDFLT
  2
AcDbDictionaryWithDefault
  3
ObjectDBX Classes
 90
0
 91
0
280
0
281
0
  0
CLASS
  1
SUN
  2
AcDbSun
  3
SCENEOE
 90
1153
 91
0
280
0
281
0
  0
CLASS
  1
VISUALSTYLE
  2
AcDbVisualStyle
  3
ObjectDBX Classes
 90
4095
 91
0
280
0
281
0
  0
CLASS
  1
MATERIAL
  2
AcDbMaterial
  3
ObjectDBX Classes
 90
1153
 91
0
280
0
281
0
  0
CLASS
  1
SCALE
  2
AcDbScale
  3
ObjectDBX Classes
 90
1153
 91
0
280
0
281
0
  0
CLASS
  1
TABLESTYLE
  2
AcDbTableStyle
  3
ObjectDBX Classes
 90
4095
 91
0
280
0
281
0
  0
CLASS
  1
MLEADERSTYLE
  2
AcDbMLeaderStyle
  3
ACDB_MLEADERSTYLE_CLASS
 90
4095
 91
0
280
0
281
0
  0
CLASS
  1
DICTIONARYVAR
  2
AcDbDictionaryVar
  3
ObjectDBX Classes
 90
0
 91
0
280
0
281
0
  0
CLASS
  1
CELLSTYLEMAP
  2
AcDbCellStyleMap
  3
ObjectDBX Classes
 90
1152
 91
0
280
0
281
0
  0
CLASS
  1
MENTALRAYRENDERSETTINGS
  2
AcDbMentalRayRenderSettings
  3
SCENEOE
 90
1024
 91
0
280
0
281
0
  0
CLASS
  1
ACDBDETAILVIEWSTYLE
  2
AcDbDetailViewStyle
  3
ObjectDBX Classes
 90
1025
 91
0
280
0
281
0
  0
CLASS
  1
ACDBSECTIONVIEWSTYLE
  2
AcDbSectionViewStyle
  3
ObjectDBX Classes
 90
1025
 91
0
280
0
281
0
  0
CLASS
  1
RASTERVARIABLES
  2
AcDbRasterVariables
  3
ISM
 90
0
 91
0
280
0
281
0
  0
CLASS
  1
IMAGE
  2
AcDbRasterImage
  3
ISM
 90
2175
 91
0
280
0
281
1
  0
CLASS
  1
IMAGEDEF
  2
AcDbRasterImageDef
  3
ISM
 90
0
 91
0
280
0
281
0
  0
CLASS
  1
IMAGEDEF_REACTOR
  2
AcDbRasterImageDefReactor
  3
ISM
 90
1
 91
0
280
0
281
0
  0
CLASS
  1
LAYOUT
  2
AcDbLayout
  3
ObjectDBX Classes
 90
0
 91
0
280
0
281
0
  0
CLASS
  1
ACDBPLACEHOLDER
  2
AcDbPlaceHolder
  3
ObjectDBX Classes
 90
0
 91
0
280
0
281
0
  0
ENDSEC
  0
SECTION
  2
TABLES
  0
TABLE
  2
VPORT
  5
8
330
0
100
AcDbSymbolTable
 70
1
  0
VPORT
  5
23
330
8
100
AcDbSymbolTableRecord
100
AcDbViewportTableRecord
  2
*Active
 70
0
 10
0.0
 20
0.0
 11
1.0
 21
1.0
 12
0.0
 22
0.0
 13
0.0
 23
0.0
 14
0.5
 24
0.5
 15
0.5
 25
0.5
 16
0.0
 26
0.0
 36
1.0
 17
0.0
 27
0.0
 37
0.0
 40
1000.0
 41
1.34
 42
50.0
 43
0.0
 44
0.0
 50
0.0
 51
0.0
 71
0
 72
1000
 73
1
 74
3
 75
0
 76
0
 77
0
 78
0
281
0
 65
0
146
0.0
  0
ENDTAB
  0
TABLE
  2
LTYPE
  5
2
330
0
100
AcDbSymbolTable
 70
22
  0
LTYPE
  5
24
330
2
100
AcDbSymbolTableRecord
100
AcDbLinetypeTableRecord
  2
ByBlock
 70
0
  3

 72
65
 73
0
 40
0.0
  0
LTYPE
  5
25
330
2
100
AcDbSymbolTableRecord
100
AcDbLinetypeTableRecord
  2
ByLayer
 70
0
  3

 72
65
 73
0
 40
0.0
  0
LTYPE
  5
26
330
2
100
AcDbSymbolTableRecord
100
AcDbLinetypeTableRecord
  2
Continuous
 70
0
  3

 72
65
 73
0
 40
0.0
  0
LTYPE
  5
2F
330
2
100
AcDbSymbolTableRecord
100
AcDbLinetypeTableRecord
  2
CENTER
 70
0
  3
Center ____ _ ____ _ ____ _ ____ _ ____ _ ____
 72
65
 73
4
 40
5.08
 49
3.175
 74
0
 49
-0.635
 74
0
 49
0.635
 74
0
 49
-0.635
 74
0
  0
LTYPE
  5
30
330
2
100
AcDbSymbolTableRecord
100
AcDbLinetypeTableRecord
  2
CENTERX2
 70
0
  3
Center (2x) ________  __  ________  __  ________
 72
65
 73
4
 40
8.89
 49
6.35
 74
0
 49
-0.635
 74
0
 49
1.27
 74
0
 49
-0.635
 74
0
  0
LTYPE
  5
31
330
2
100
AcDbSymbolTableRecord
100
AcDbLinetypeTableRecord
  2
CENTER2
 70
0
  3
Center (.5x) ____ _ ____ _ ____ _ ____ _ ____
 72
65
 73
4
 40
2.54
 49
1.587
 74
0
 49
-0.318
 74
0
 49
0.318
 74
0
 49
-0.318
 74
0
  0
LTYPE
  5
32
330
2
100
AcDbSymbolTableRecord
100
AcDbLinetypeTableRecord
  2
DASHED
 70
0
  3
Dashed __ __ __ __ __ __ __ __ __ __ __ __ __ _
 72
65
 73
2
 40
1.524
 49
1.27
 74
0
 49
-0.254
 74
0
  0
LTYPE
  5
33
330
2
100
AcDbSymbolTableRecord
100
AcDbLinetypeTableRecord
  2
DASHEDX2
 70
0
  3
Dashed (2x) ____  ____  ____  ____  ____  ____
 72
65
 73
2
 40
3.048
 49
2.54
 74
0
 49
-0.508
 74
0
  0
LTYPE
  5
34
330
2
100
AcDbSymbolTableRecord
100
AcDbLinetypeTableRecord
  2
DASHED2
 70
0
  3
Dashed (.5x) _ _ _ _ _ _ _ _ _ _ _ _ _ _
 72
65
 73
2
 40
0.762
 49
0.635
 74
0
 49
-0.127
 74
0
  0
LTYPE
  5
35
330
2
100
AcDbSymbolTableRecord
100
AcDbLinetypeTableRecord
  2
PHANTOM
 70
0
  3
Phantom ______  __  __  ______  __  __  ______
 72
65
 73
6
 40
6.35
 49
3.175
 74
0
 49
-0.635
 74
0
 49
0.635
 74
0
 49
-0.635
 74
0
 49
0.635
 74
0
 49
-0.635
 74
0
  0
LTYPE
  5
36
330
2
100
AcDbSymbolTableRecord
100
AcDbLinetypeTableRecord
  2
PHANTOMX2
 70
0
  3
Phantom (2x)____________    ____    ____    ____________
 72
65
 73
6
 40
10.795
 49
6.35
 74
0
 49
-0.635
 74
0
 49
1.27
 74
0
 49
-0.635
 74
0
 49
1.27
 74
0
 49
-0.635
 74
0
  0
LTYPE
  5
37
330
2
100
AcDbSymbolTableRecord
100
AcDbLinetypeTableRecord
  2
PHANTOM2
 70
0
  3
Phantom (.5x) ___ _ _ ___ _ _ ___ _ _ ___ _ _ ___
 72
65
 73
6
 40
3.175
 49
1.587
 74
0
 49
-0.318
 74
0
 49
0.318
 74
0
 49
-0.318
 74
0
 49
0.318
 74
0
 49
-0.318
 74
0
  0
LTYPE
  5
38
330
2
100
AcDbSymbolTableRecord
100
AcDbLinetypeTableRecord
  2
DASHDOT
 70
0
  3
Dash dot __ . __ . __ . __ . __ . __ . __ . __
 72
65
 73
4
 40
3.556
 49
2.54
 74
0
 49
-0.508
 74
0
 49
0.0
 74
0
 49
-0.508
 74
0
  0
LTYPE
  5
39
330
2
100
AcDbSymbolTableRecord
100
AcDbLinetypeTableRecord
  2
DASHDOTX2
 70
0
  3
Dash dot (2x) ____  .  ____  .  ____  .  ____
 72
65
 73
4
 40
6.096
 49
5.08
 74
0
 49
-0.508
 74
0
 49
0.0
 74
0
 49
-0.508
 74
0
  0
LTYPE
  5
3A
330
2
100
AcDbSymbolTableRecord
100
AcDbLinetypeTableRecord
  2
DASHDOT2
 70
0
  3
Dash dot (.5x) _ . _ . _ . _ . _ . _ . _ . _
 72
65
 73
4
 40
1.778
 49
1.27
 74
0
 49
-0.254
 74
0
 49
0.0
 74
0
 49
-0.254
 74
0
  0
LTYPE
  5
3B
330
2
100
AcDbSymbolTableRecord
100
AcDbLinetypeTableRecord
  2
DOT
 70
0
  3
Dot .  .  .  .  .  .  .  .  .  .  .  .  .  .  .  .
 72
65
 73
2
 40
0.508
 49
0.0
 74
0
 49
-0.508
 74
0
  0
LTYPE
  5
3C
330
2
100
AcDbSymbolTableRecord
100
AcDbLinetypeTableRecord
  2
DOTX2
 70
0
  3
Dot (2x) .    .    .    .    .    .    .    . 
 72
65
 73
2
 40
1.016
 49
0.0
 74
0
 49
-1.016
 74
0
  0
LTYPE
  5
3D
330
2
100
AcDbSymbolTableRecord
100
AcDbLinetypeTableRecord
  2
DOT2
 70
0
  3
Dot (.5) . . . . . . . . . . . . . . . . . . . 
 72
65
 73
2
 40
0.254
 49
0.0
 74
0
 49
-0.254
 74
0
  0
LTYPE
  5
3E
330
2
100
AcDbSymbolTableRecord
100
AcDbLinetypeTableRecord
  2
DIVIDE
 70
0
  3
Divide __ . . __ . . __ . . __ . . __ . . __
 72
65
 73
6
 40
4.064
 49
2.54
 74
0
 49
-0.508
 74
0
 49
0.0
 74
0
 49
-0.508
 74
0
 49
0.0
 74
0
 49
-0.508
 74
0
  0
LTYPE
  5
3F
330
2
100
AcDbSymbolTableRecord
100
AcDbLinetypeTableRecord
  2
DIVIDEX2
 70
0
  3
Divide (2x) ____  . .  ____  . .  ____  . .  ____
 72
65
 73
6
 40
6.604
 49
5.08
 74
0
 49
-0.508
 74
0
 49
0.0
 74
0
 49
-0.508
 74
0
 49
0.0
 74
0
 49
-0.508
 74
0
  0
LTYPE
  5
40
330
2
100
AcDbSymbolTableRecord
100
AcDbLinetypeTableRecord
  2
DIVIDE2
 70
0
  3
Divide(.5x) _ . _ . _ . _ . _ . _ . _ . _
 72
65
 73
6
 40
2.032
 49
1.27
 74
0
 49
-0.254
 74
0
 49
0.0
 74
0
 49
-0.254
 74
0
 49
0.0
 74
0
 49
-0.254
 74
0
  0
LTYPE
  5
10B
330
2
100
AcDbSymbolTableRecord
100
AcDbLinetypeTableRecord
  2
DGN Style 2
 70
0
  3
Dgn Style 2
 72
65
 73
2
 40
0.0052243461207368
 49
0.0031346076724421
 74
0
 49
-0.0020897384482947
 74
0
  0
ENDTAB
  0
TABLE
  2
LAYER
  5
1
330
0
100
AcDbSymbolTable
 70
7
  0
LAYER
  5
27
330
1
100
AcDbSymbolTableRecord
100
AcDbLayerTableRecord
  2
0
 70
0
 62
7
  6
Continuous
370
-3
390
13
347
21
  0
LAYER
  5
28
330
1
100
AcDbSymbolTableRecord
100
AcDbLayerTableRecord
  2
Defpoints
 70
0
 62
7
  6
Continuous
290
0
370
-3
390
13
347
21
  0
LAYER
  5
8A
330
1
100
AcDbSymbolTableRecord
100
AcDbLayerTableRecord
  2
WT_podklad
 70
0
 62
7
  6
Continuous
370
-3
390
13
347
21
  0
LAYER
  5
90
330
1
100
AcDbSymbolTableRecord
100
AcDbLayerTableRecord
  2
WT_trasa
 70
0
 62
1
  6
Continuous
370
-3
390
13
347
21
  0
LAYER
  5
A9
330
1
100
AcDbSymbolTableRecord
100
AcDbLayerTableRecord
  2
WT_arkusze
 70
0
 62
5
  6
Continuous
370
-3
390
13
347
21
  0
LAYER
  5
109
330
1
100
AcDbSymbolTableRecord
100
AcDbLayerTableRecord
  2
@Tabelka
 70
0
 62
7
  6
Continuous
370
13
390
F
347
146
  0
LAYER
  5
10A
330
1
100
AcDbSymbolTableRecord
100
AcDbLayerTableRecord
  2
@KonstrTabelki
 70
0
 62
253
  6
DGN Style 2
290
0
370
0
390
F
347
146
  0
ENDTAB
  0
TABLE
  2
STYLE
  5
5
330
0
100
AcDbSymbolTable
 70
27
  0
STYLE
  5
29
330
5
100
AcDbSymbolTableRecord
100
AcDbTextStyleTableRecord
  2
Standard
 70
0
 40
0.0
 41
1.0
 50
0.0
 71
0
 42
2.5
  3
txt
  4

  0
STYLE
  5
41
330
5
100
AcDbSymbolTableRecord
100
AcDbTextStyleTableRecord
  2
OpenSans-Light
 70
0
 40
0.0
 41
1.0
 50
0.0
 71
0
 42
2.5
  3
OpenSans-Light.ttf
  4

  0
STYLE
  5
42
330
5
100
AcDbSymbolTableRecord
100
AcDbTextStyleTableRecord
  2
OpenSans-Light-Italic
 70
0
 40
0.0
 41
1.0
 50
0.0
 71
0
 42
2.5
  3
OpenSans-LightItalic.ttf
  4

  0
STYLE
  5
43
330
5
100
AcDbSymbolTableRecord
100
AcDbTextStyleTableRecord
  2
OpenSans
 70
0
 40
0.0
 41
1.0
 50
0.0
 71
0
 42
2.5
  3
OpenSans-Regular.ttf
  4

  0
STYLE
  5
44
330
5
100
AcDbSymbolTableRecord
100
AcDbTextStyleTableRecord
  2
OpenSans-Italic
 70
0
 40
0.0
 41
1.0
 50
0.0
 71
0
 42
2.5
  3
OpenSans-Italic.ttf
  4

  0
STYLE
  5
45
330
5
100
AcDbSymbolTableRecord
100
AcDbTextStyleTableRecord
  2
OpenSans-SemiBold
 70
0
 40
0.0
 41
1.0
 50
0.0
 71
0
 42
2.5
  3
OpenSans-SemiBold.ttf
  4

  0
STYLE
  5
46
330
5
100
AcDbSymbolTableRecord
100
AcDbTextStyleTableRecord
  2
OpenSans-SemiBoldItalic
 70
0
 40
0.0
 41
1.0
 50
0.0
 71
0
 42
2.5
  3
OpenSans-SemiBoldItalic.ttf
  4

  0
STYLE
  5
47
330
5
100
AcDbSymbolTableRecord
100
AcDbTextStyleTableRecord
  2
OpenSans-Bold
 70
0
 40
0.0
 41
1.0
 50
0.0
 71
0
 42
2.5
  3
OpenSans-Bold.ttf
  4

  0
STYLE
  5
48
330
5
100
AcDbSymbolTableRecord
100
AcDbTextStyleTableRecord
  2
OpenSans-BoldItalic
 70
0
 40
0.0
 41
1.0
 50
0.0
 71
0
 42
2.5
  3
OpenSans-BoldItalic.ttf
  4

  0
STYLE
  5
49
330
5
100
AcDbSymbolTableRecord
100
AcDbTextStyleTableRecord
  2
OpenSans-ExtraBold
 70
0
 40
0.0
 41
1.0
 50
0.0
 71
0
 42
2.5
  3
OpenSans-ExtraBold.ttf
  4

  0
STYLE
  5
4A
330
5
100
AcDbSymbolTableRecord
100
AcDbTextStyleTableRecord
  2
OpenSans-ExtraBoldItalic
 70
0
 40
0.0
 41
1.0
 50
0.0
 71
0
 42
2.5
  3
OpenSans-ExtraBoldItalic.ttf
  4

  0
STYLE
  5
4B
330
5
100
AcDbSymbolTableRecord
100
AcDbTextStyleTableRecord
  2
OpenSansCondensed-Bold
 70
0
 40
0.0
 41
1.0
 50
0.0
 71
0
 42
2.5
  3
OpenSansCondensed-Bold.ttf
  4

  0
STYLE
  5
4C
330
5
100
AcDbSymbolTableRecord
100
AcDbTextStyleTableRecord
  2
OpenSansCondensed-Light
 70
0
 40
0.0
 41
1.0
 50
0.0
 71
0
 42
2.5
  3
OpenSansCondensed-Light.ttf
  4

  0
STYLE
  5
4D
330
5
100
AcDbSymbolTableRecord
100
AcDbTextStyleTableRecord
  2
OpenSansCondensed-Italic
 70
0
 40
0.0
 41
1.0
 50
0.0
 71
0
 42
2.5
  3
OpenSansCondensed-LightItalic.ttf
  4

  0
STYLE
  5
4E
330
5
100
AcDbSymbolTableRecord
100
AcDbTextStyleTableRecord
  2
LiberationSans
 70
0
 40
0.0
 41
1.0
 50
0.0
 71
0
 42
2.5
  3
LiberationSans-Regular.ttf
  4

  0
STYLE
  5
4F
330
5
100
AcDbSymbolTableRecord
100
AcDbTextStyleTableRecord
  2
LiberationSans-Bold
 70
0
 40
0.0
 41
1.0
 50
0.0
 71
0
 42
2.5
  3
LiberationSans-Bold.ttf
  4

  0
STYLE
  5
50
330
5
100
AcDbSymbolTableRecord
100
AcDbTextStyleTableRecord
  2
LiberationSans-BoldItalic
 70
0
 40
0.0
 41
1.0
 50
0.0
 71
0
 42
2.5
  3
LiberationSans-BoldItalic.ttf
  4

  0
STYLE
  5
51
330
5
100
AcDbSymbolTableRecord
100
AcDbTextStyleTableRecord
  2
LiberationSans-Italic
 70
0
 40
0.0
 41
1.0
 50
0.0
 71
0
 42
2.5
  3
LiberationSans-Italic.ttf
  4

  0
STYLE
  5
52
330
5
100
AcDbSymbolTableRecord
100
AcDbTextStyleTableRecord
  2
LiberationSerif
 70
0
 40
0.0
 41
1.0
 50
0.0
 71
0
 42
2.5
  3
LiberationSerif-Regular.ttf
  4

  0
STYLE
  5
53
330
5
100
AcDbSymbolTableRecord
100
AcDbTextStyleTableRecord
  2
LiberationSerif-Bold
 70
0
 40
0.0
 41
1.0
 50
0.0
 71
0
 42
2.5
  3
LiberationSerif-Bold.ttf
  4

  0
STYLE
  5
54
330
5
100
AcDbSymbolTableRecord
100
AcDbTextStyleTableRecord
  2
LiberationSerif-BoldItalic
 70
0
 40
0.0
 41
1.0
 50
0.0
 71
0
 42
2.5
  3
LiberationSerif-BoldItalic.ttf
  4

  0
STYLE
  5
55
330
5
100
AcDbSymbolTableRecord
100
AcDbTextStyleTableRecord
  2
LiberationSerif-Italic
 70
0
 40
0.0
 41
1.0
 50
0.0
 71
0
 42
2.5
  3
LiberationSerif-Italic.ttf
  4

  0
STYLE
  5
56
330
5
100
AcDbSymbolTableRecord
100
AcDbTextStyleTableRecord
  2
LiberationMono
 70
0
 40
0.0
 41
1.0
 50
0.0
 71
0
 42
2.5
  3
LiberationMono-Regular.ttf
  4

  0
STYLE
  5
57
330
5
100
AcDbSymbolTableRecord
100
AcDbTextStyleTableRecord
  2
LiberationMono-Bold
 70
0
 40
0.0
 41
1.0
 50
0.0
 71
0
 42
2.5
  3
LiberationMono-Bold.ttf
  4

  0
STYLE
  5
58
330
5
100
AcDbSymbolTableRecord
100
AcDbTextStyleTableRecord
  2
LiberationMono-BoldItalic
 70
0
 40
0.0
 41
1.0
 50
0.0
 71
0
 42
2.5
  3
LiberationMono-BoldItalic.ttf
  4

  0
STYLE
  5
59
330
5
100
AcDbSymbolTableRecord
100
AcDbTextStyleTableRecord
  2
LiberationMono-Italic
 70
0
 40
0.0
 41
1.0
 50
0.0
 71
0
 42
2.5
  3
LiberationMono-Italic.ttf
  4

  0
STYLE
  5
10C
330
5
100
AcDbSymbolTableRecord
100
AcDbTextStyleTableRecord
  2
LEGENDA
 70
0
 40
0.0
 41
1.0
 50
0.0
 71
0
 42
2.5
  3
arial.ttf
  4

  0
ENDTAB
  0
TABLE
  2
VIEW
  5
7
330
0
100
AcDbSymbolTable
 70
0
  0
ENDTAB
  0
TABLE
  2
UCS
  5
6
330
0
100
AcDbSymbolTable
 70
0
  0
ENDTAB
  0
TABLE
  2
APPID
  5
3
330
0
100
AcDbSymbolTable
 70
3
  0
APPID
  5
2A
330
3
100
AcDbSymbolTableRecord
100
AcDbRegAppTableRecord
  2
ACAD
 70
0
  0
APPID
  5
10F
330
3
100
AcDbSymbolTableRecord
100
AcDbRegAppTableRecord
  2
HATCHBACKGROUNDCOLOR
 70
0
  0
APPID
  5
110
330
3
100
AcDbSymbolTableRecord
100
AcDbRegAppTableRecord
  2
EZDXF
 70
0
  0
ENDTAB
  0
TABLE
  2
DIMSTYLE
  5
4
330
0
100
AcDbSymbolTable
 70
12
100
AcDbDimStyleTable
  0
DIMSTYLE
105
2B
330
4
100
AcDbSymbolTableRecord
100
AcDbDimStyleTableRecord
  2
Standard
 70
0
 40
1.0
 41
2.5
 42
0.625
 43
3.75
 44
1.25
 45
0.0
 46
0.0
 47
0.0
 48
0.0
 49
2.5
140
2.5
141
2.5
142
0.0
143
0.03937007874
144
1.0
145
0.0
146
1.0
147
0.625
148
0.0
 69
0
 70
0
 71
0
 72
0
 73
0
 74
0
 75
0
 76
0
 77
1
 78
8
 79
3
170
0
171
3
172
1
173
0
174
0
175
0
176
0
177
0
178
0
179
2
271
2
272
2
273
2
274
3
275
0
276
0
277
2
278
44
279
0
280
0
281
0
282
0
283
0
284
8
285
0
286
0
288
0
289
3
290
0
371
-2
372
-2
  0
DIMSTYLE
105
73
330
4
100
AcDbSymbolTableRecord
100
AcDbDimStyleTableRecord
  2
EZDXF
 70
0
 40
1.0
 41
0.175
 42
0.125
 43
3.75
 44
0.375
 45
0.0
 46
0.0
 47
0.0
 48
0.0
 49
2.5
140
0.25
141
2.5
142
0.0
143
0.03937007874
144
100.0
145
0.0
146
0.5
147
0.1
148
0.0
 69
0
 70
0
 71
0
 72
0
 73
0
 74
0
 75
0
 76
0
 77
1
 78
12
 79
3
170
0
171
3
172
1
173
0
174
0
175
0
176
0
177
0
178
0
179
2
271
2
272
2
273
2
274
3
275
0
276
0
277
2
278
46
279
2
280
0
281
0
282
0
283
0
284
8
285
0
286
0
288
1
289
3
290
0
340
4C
342
74
371
-2
372
-2
  0
DIMSTYLE
105
7C
330
4
100
AcDbSymbolTableRecord
100
AcDbDimStyleTableRecord
  2
EZ_M_100_H25_CM
 70
0
 40
1.0
 41
0.25
 42
0.125
 43
3.75
 44
0.375
 45
0.0
 46
0.0
 47
0.0
 48
0.0
 49
2.5
140
0.25
141
2.5
142
0.125
143
0.03937007874
144
100.0
145
0.0
146
0.5
147
0.1
148
0.0
 69
0
 70
0
 71
0
 72
0
 73
0
 74
0
 75
0
 76
0
 77
1
 78
12
 79
3
170
0
171
3
172
1
173
0
174
0
175
0
176
0
177
0
178
0
179
2
271
2
272
2
273
2
274
3
275
0
276
0
277
2
278
46
279
2
280
0
281
0
282
0
283
0
284
8
285
0
286
0
288
1
289
3
290
0
340
4C
371
-2
372
-2
  0
DIMSTYLE
105
7D
330
4
100
AcDbSymbolTableRecord
100
AcDbDimStyleTableRecord
  2
EZ_M_50_H25_CM
 70
0
 40
1.0
 41
0.125
 42
0.0625
 43
3.75
 44
0.1875
 45
0.0
 46
0.0
 47
0.0
 48
0.0
 49
2.5
140
0.125
141
2.5
142
0.0625
143
0.03937007874
144
100.0
145
0.0
146
0.5
147
0.05
148
0.0
 69
0
 70
0
 71
0
 72
0
 73
0
 74
0
 75
0
 76
0
 77
1
 78
12
 79
3
170
0
171
3
172
1
173
0
174
0
175
0
176
0
177
0
178
0
179
2
271
2
272
2
273
2
274
3
275
0
276
0
277
2
278
46
279
2
280
0
281
0
282
0
283
0
284
8
285
0
286
0
288
1
289
3
290
0
340
4C
371
-2
372
-2
  0
DIMSTYLE
105
7E
330
4
100
AcDbSymbolTableRecord
100
AcDbDimStyleTableRecord
  2
EZ_M_25_H25_CM
 70
0
 40
1.0
 41
0.0625
 42
0.03125
 43
3.75
 44
0.09375
 45
0.0
 46
0.0
 47
0.0
 48
0.0
 49
2.5
140
0.0625
141
2.5
142
0.03125
143
0.03937007874
144
100.0
145
0.0
146
0.5
147
0.025
148
0.0
 69
0
 70
0
 71
0
 72
0
 73
0
 74
0
 75
0
 76
0
 77
1
 78
12
 79
3
170
0
171
3
172
1
173
0
174
0
175
0
176
0
177
0
178
0
179
2
271
2
272
2
273
2
274
3
275
0
276
0
277
2
278
46
279
2
280
0
281
0
282
0
283
0
284
8
285
0
286
0
288
1
289
3
290
0
340
4C
371
-2
372
-2
  0
DIMSTYLE
105
7F
330
4
100
AcDbSymbolTableRecord
100
AcDbDimStyleTableRecord
  2
EZ_M_20_H25_CM
 70
0
 40
1.0
 41
0.05
 42
0.025
 43
3.75
 44
0.07500000000000001
 45
0.0
 46
0.0
 47
0.0
 48
0.0
 49
2.5
140
0.05
141
2.5
142
0.025
143
0.03937007874
144
100.0
145
0.0
146
0.5
147
0.020000000000000004
148
0.0
 69
0
 70
0
 71
0
 72
0
 73
0
 74
0
 75
0
 76
0
 77
1
 78
12
 79
3
170
0
171
3
172
1
173
0
174
0
175
0
176
0
177
0
178
0
179
2
271
2
272
2
273
2
274
3
275
0
276
0
277
2
278
46
279
2
280
0
281
0
282
0
283
0
284
8
285
0
286
0
288
1
289
3
290
0
340
4C
371
-2
372
-2
  0
DIMSTYLE
105
80
330
4
100
AcDbSymbolTableRecord
100
AcDbDimStyleTableRecord
  2
EZ_M_10_H25_CM
 70
0
 40
1.0
 41
0.025
 42
0.0125
 43
3.75
 44
0.037500000000000006
 45
0.0
 46
0.0
 47
0.0
 48
0.0
 49
2.5
140
0.025
141
2.5
142
0.0125
143
0.03937007874
144
100.0
145
0.0
146
0.5
147
0.010000000000000002
148
0.0
 69
0
 70
0
 71
0
 72
0
 73
0
 74
0
 75
0
 76
0
 77
1
 78
12
 79
3
170
0
171
3
172
1
173
0
174
0
175
0
176
0
177
0
178
0
179
2
271
2
272
2
273
2
274
3
275
0
276
0
277
2
278
46
279
2
280
0
281
0
282
0
283
0
284
8
285
0
286
0
288
1
289
3
290
0
340
4C
371
-2
372
-2
  0
DIMSTYLE
105
81
330
4
100
AcDbSymbolTableRecord
100
AcDbDimStyleTableRecord
  2
EZ_M_5_H25_CM
 70
0
 40
1.0
 41
0.0125
 42
0.00625
 43
3.75
 44
0.018750000000000003
 45
0.0
 46
0.0
 47
0.0
 48
0.0
 49
2.5
140
0.0125
141
2.5
142
0.00625
143
0.03937007874
144
100.0
145
0.0
146
0.5
147
0.005000000000000001
148
0.0
 69
0
 70
0
 71
0
 72
0
 73
0
 74
0
 75
0
 76
0
 77
1
 78
12
 79
3
170
0
171
3
172
1
173
0
174
0
175
0
176
0
177
0
178
0
179
2
271
2
272
2
273
2
274
3
275
0
276
0
277
2
278
46
279
2
280
0
281
0
282
0
283
0
284
8
285
0
286
0
288
1
289
3
290
0
340
4C
371
-2
372
-2
  0
DIMSTYLE
105
82
330
4
100
AcDbSymbolTableRecord
100
AcDbDimStyleTableRecord
  2
EZ_M_1_H25_CM
 70
0
 40
1.0
 41
0.0025
 42
0.00125
 43
3.75
 44
0.00375
 45
0.0
 46
0.0
 47
0.0
 48
0.0
 49
2.5
140
0.0025
141
2.5
142
0.00125
143
0.03937007874
144
100.0
145
0.0
146
0.5
147
0.001
148
0.0
 69
0
 70
0
 71
0
 72
0
 73
0
 74
0
 75
0
 76
0
 77
1
 78
12
 79
3
170
0
171
3
172
1
173
0
174
0
175
0
176
0
177
0
178
0
179
2
271
2
272
2
273
2
274
3
275
0
276
0
277
2
278
46
279
2
280
0
281
0
282
0
283
0
284
8
285
0
286
0
288
1
289
3
290
0
340
4C
371
-2
372
-2
  0
DIMSTYLE
105
83
330
4
100
AcDbSymbolTableRecord
100
AcDbDimStyleTableRecord
  2
EZ_RADIUS
 70
0
 40
1.0
 41
0.25
 42
0.125
 43
3.75
 44
0.375
 45
0.0
 46
0.0
 47
0.0
 48
0.0
 49
2.5
140
0.25
141
0.0
142
0.0
143
0.03937007874
144
100.0
145
0.0
146
0.5
147
0.1
148
0.0
 69
0
 70
0
 71
0
 72
0
 73
0
 74
0
 75
0
 76
0
 77
1
 78
12
 79
3
170
0
171
3
172
0
173
0
174
0
175
0
176
0
177
0
178
0
179
2
271
2
272
2
273
2
274
3
275
0
276
0
277
2
278
46
279
1
280
0
281
0
282
0
283
0
284
8
285
0
286
0
288
1
289
3
290
0
340
4C
342
84
371
-2
372
-2
  0
DIMSTYLE
105
88
330
4
100
AcDbSymbolTableRecord
100
AcDbDimStyleTableRecord
  2
EZ_RADIUS_INSIDE
 70
0
 40
1.0
 41
0.25
 42
0.125
 43
3.75
 44
0.375
 45
0.0
 46
0.0
 47
0.0
 48
0.0
 49
2.5
140
0.25
141
0.0
142
0.0
143
0.03937007874
144
100.0
145
0.0
146
0.5
147
0.1
148
0.0
 69
0
 70
0
 71
0
 72
0
 73
0
 74
0
 75
0
 76
0
 77
0
 78
12
 79
3
170
0
171
3
172
0
173
0
174
1
175
0
176
0
177
0
178
0
179
2
271
2
272
2
273
2
274
3
275
0
276
0
277
2
278
46
279
0
280
0
281
0
282
0
283
0
284
8
285
0
286
0
288
1
289
0
290
0
340
4C
342
84
371
-2
372
-2
  0
DIMSTYLE
105
89
330
4
100
AcDbSymbolTableRecord
100
AcDbDimStyleTableRecord
  2
EZ_CURVED
 70
0
 40
1.0
 41
0.25
 42
0.125
 43
3.75
 44
0.375
 45
0.0
 46
0.0
 47
0.0
 48
0.0
 49
2.5
140
0.25
141
2.5
142
0.0
143
0.03937007874
144
100.0
145
0.0
146
0.5
147
0.1
148
0.0
 69
0
 70
0
 71
0
 72
0
 73
0
 74
0
 75
0
 76
0
 77
1
 78
12
 79
2
 90
2
170
0
171
3
172
1
173
0
174
0
175
0
176
0
177
0
178
0
179
2
271
2
272
2
273
2
274
3
275
0
276
0
277
2
278
46
279
2
280
0
281
0
282
0
283
0
284
8
285
0
286
0
288
1
289
3
290
0
340
4C
371
-2
372
-2
  0
ENDTAB
  0
TABLE
  2
BLOCK_RECORD
  5
9
330
0
100
AcDbSymbolTable
 70
6
  0
BLOCK_RECORD
  5
17
330
9
100
AcDbSymbolTableRecord
100
AcDbBlockTableRecord
  2
*Model_Space
340
1A
 70
0
280
1
281
0
  0
BLOCK_RECORD
  5
74
330
9
100
AcDbSymbolTableRecord
100
AcDbBlockTableRecord
  2
_ARCHTICK
340
0
 70
0
280
1
281
0
  0
BLOCK_RECORD
  5
78
330
9
100
AcDbSymbolTableRecord
100
AcDbBlockTableRecord
  2
_CLOSEDFILLED
340
0
 70
0
280
1
281
0
  0
BLOCK_RECORD
  5
84
330
9
100
AcDbSymbolTableRecord
100
AcDbBlockTableRecord
  2
_CLOSEDBLANK
340
0
 70
0
280
1
281
0
  0
BLOCK_RECORD
  5
E1
330
9
100
AcDbSymbolTableRecord
100
AcDbBlockTableRecord
  2
tabelka
340
0
 70
0
280
1
281
0
  0
BLOCK_RECORD
  5
D6
330
9
100
AcDbSymbolTableRecord
100
AcDbBlockTableRecord
  2
*Paper_Space
340
D9
 70
0
280
1
281
0
  0
ENDTAB
  0
ENDSEC
  0
SECTION
  2
BLOCKS
  0
BLOCK
  5
18
330
17
100
AcDbEntity
  8
0
100
AcDbBlockBegin
  2
*Model_Space
 70
0
 10
0.0
 20
0.0
 30
0.0
  3
*Model_Space
  1

  0
ENDBLK
  5
19
330
17
100
AcDbEntity
  8
0
100
AcDbBlockEnd
  0
BLOCK
  5
75
330
74
100
AcDbEntity
  8
0
100
AcDbBlockBegin
  2
_ARCHTICK
 70
0
 10
0.0
 20
0.0
 30
0.0
  3
_ARCHTICK
  1

  0
LWPOLYLINE
  5
77
330
74
100
AcDbEntity
  8
0
  6
BYBLOCK
 62
0
100
AcDbPolyline
 90
2
 70
0
 43
0.15
 10
-0.5
 20
-0.5
 10
0.5
 20
0.5
  0
ENDBLK
  5
76
330
74
100
AcDbEntity
  8
0
100
AcDbBlockEnd
  0
BLOCK
  5
79
330
78
100
AcDbEntity
  8
0
100
AcDbBlockBegin
  2
_CLOSEDFILLED
 70
0
 10
0.0
 20
0.0
 30
0.0
  3
_CLOSEDFILLED
  1

  0
SOLID
  5
7B
330
78
100
AcDbEntity
  8
0
  6
BYBLOCK
 62
0
100
AcDbTrace
 10
-1.0
 20
0.16439898372402537
 30
0.0
 11
0.0
 21
0.0
 31
0.0
 12
-1.0
 22
-0.16439898372402537
 32
0.0
 13
-1.0
 23
-0.16439898372402537
 33
0.0
  0
ENDBLK
  5
7A
330
78
100
AcDbEntity
  8
0
100
AcDbBlockEnd
  0
BLOCK
  5
85
330
84
100
AcDbEntity
  8
0
100
AcDbBlockBegin
  2
_CLOSEDBLANK
 70
0
 10
0.0
 20
0.0
 30
0.0
  3
_CLOSEDBLANK
  1

  0
LWPOLYLINE
  5
87
330
84
100
AcDbEntity
  8
0
  6
BYBLOCK
 62
0
100
AcDbPolyline
 90
3
 70
1
 10
-1.0
 20
0.16439898372402537
 10
0.0
 20
0.0
 10
-1.0
 20
-0.16439898372402537
  0
ENDBLK
  5
86
330
84
100
AcDbEntity
  8
0
100
AcDbBlockEnd
  0
BLOCK
  5
E2
330
E1
100
AcDbEntity
  8
0
100
AcDbBlockBegin
  2
tabelka
 70
0
 10
0.0
 20
0.0
 30
0.0
  3
tabelka
  1

  0
HATCH
  5
E4
330
E1
100
AcDbEntity
  8
0
 62
7
420
16777215
440
33554687
100
AcDbHatch
 10
0.0
 20
0.0
 30
0.0
210
0.0
220
0.0
230
1.0
  2
SOLID
 70
1
 71
0
 91
1
 92
1
 93
4
 72
1
 10
-82.99999999999766
 20
58.60723257000767
 11
2.3306e-12
 21
58.60723257000767
 72
1
 10
2.3306e-12
 20
58.60723257000767
 11
0.0
 21
0.0
 72
1
 10
0.0
 20
0.0
 11
-82.99999999999858
 21
3.6e-15
 72
1
 10
-82.99999999999858
 20
3.6e-15
 11
-82.99999999999766
 21
58.60723257000767
 97
0
 75
1
 76
1
 98
0
450
0
451
0
460
0.0
461
1.0
452
0
462
0.0
453
2
463
0
 63
5
421
255
463
1
 63
2
421
16776960
470
LINEAR
  0
LINE
  5
E5
330
E1
100
AcDbEntity
  8
@Tabelka
370
40
100
AcDbLine
 10
-81.49999999999767
 20
57.10723257000767
 30
0.0
 11
-1.499999999997726
 21
57.10723257000767
 31
0.0
  0
LINE
  5
E6
330
E1
100
AcDbEntity
  8
@Tabelka
370
40
100
AcDbLine
 10
-81.49999999999767
 20
52.65949145948251
 30
0.0
 11
-1.499999999997726
 21
52.65949145948251
 31
0.0
  0
MTEXT
  5
E7
330
E1
100
AcDbEntity
  8
@Tabelka
100
AcDbMText
 10
-41.49999999999818
 20
55.71613942348539
 30
0.0
 40
2.0
 41
0.0
 46
0.0
 71
2
  1
{\fLato Light|b1|i0|c238|p34;INWESTOR}
 73
2
 44
0.825
  0
LINE
  5
E8
330
E1
100
AcDbEntity
  8
@Tabelka
370
40
100
AcDbLine
 10
-81.49999999999767
 20
44.52361900967183
 30
0.0
 11
-1.499999999997726
 21
44.52361900967183
 31
0.0
  0
MTEXT
  5
E9
330
E1
100
AcDbEntity
  8
@Tabelka
100
AcDbMText
 10
-80.60122693475881
 20
43.13252586314933
 30
0.0
 40
1.3
 41
0.0
 46
0.0
 71
4
  1
{\fLato Light|b1|i0|c238|p34;Obiekt:}
 73
2
 44
0.9461538461538461
  0
LINE
  5
EA
330
E1
100
AcDbEntity
  8
@Tabelka
370
40
100
AcDbLine
 10
-18.36460436299467
 20
18.6412985929553
 30
0.0
 11
-18.36460436299467
 21
11.83441984774026
 31
0.0
  0
LINE
  5
EB
330
E1
100
AcDbEntity
  8
@Tabelka
370
40
100
AcDbLine
 10
-18.36460436299558
 20
15.11375749043009
 30
0.0
 11
-18.36460436299558
 21
1.499999999999947
 31
0.0
  0
LINE
  5
EC
330
E1
100
AcDbEntity
  8
@Tabelka
370
40
100
AcDbLine
 10
-81.49999999999812
 20
11.83441984774026
 30
0.0
 11
-1.499999999998181
 21
11.83441984774026
 31
0.0
  0
LINE
  5
ED
330
E1
100
AcDbEntity
  8
@Tabelka
370
40
100
AcDbLine
 10
-51.28965140882428
 20
1.499999999999854
 30
0.0
 11
-51.28965140882428
 21
15.11375749043009
 31
0.0
  0
LINE
  5
EE
330
E1
100
AcDbEntity
  8
@Tabelka
370
40
100
AcDbLine
 10
-51.28965140882337
 20
11.83441984774026
 30
0.0
 11
-51.28965140882337
 21
18.6412985929553
 31
0.0
  0
LINE
  5
EF
330
E1
100
AcDbEntity
  8
@Tabelka
370
40
100
AcDbLine
 10
-81.49999999999812
 20
8.306878745215037
 30
0.0
 11
-1.499999999998181
 21
8.306878745215037
 31
0.0
  0
MTEXT
  5
F0
330
E1
100
AcDbEntity
  8
@Tabelka
100
AcDbMText
 10
-80.60122693475881
 20
10.07064929647753
 30
0.0
 40
1.3
 41
0.0
 46
0.0
 71
4
  1
{\fLato Light|b1|i0|c238|p34;Opracował:}
 73
2
 44
0.9461538461538461
  0
MTEXT
  5
F1
330
E1
100
AcDbEntity
  8
@Tabelka
100
AcDbMText
 10
-17.46583129775581
 20
10.07064929647753
 30
0.0
 40
1.3
 41
0.0
 46
0.0
 71
4
  1
{\fLato Light|b1|i0|c238|p34;Podpis:}
 73
2
 44
0.9461538461538461
  0
MTEXT
  5
F2
330
E1
100
AcDbEntity
  8
@Tabelka
100
AcDbMText
 10
-80.60122693475881
 20
4.903439372607401
 30
0.0
 40
1.5
 41
27.92753095343501
 46
0.0
 71
4
  1
Marcin Macko
 73
2
 44
0.8250000000000002
  0
LINE
  5
F3
330
E1
100
AcDbEntity
  8
@Tabelka
370
40
100
AcDbLine
 10
-81.49999999999858
 20
32.27439565114923
 30
0.0
 11
-1.499999999998636
 21
32.27439565114923
 31
0.0
  0
LINE
  5
F4
330
E1
100
AcDbEntity
  8
@Tabelka
370
40
100
AcDbLine
 10
-18.36460436299558
 20
22.05395339326628
 30
0.0
 11
-1.499999999999091
 21
22.05395339326628
 31
0.0
  0
LINE
  5
F5
330
E1
100
AcDbEntity
  8
@Tabelka
370
40
100
AcDbLine
 10
-18.36460436299512
 20
22.05395339326605
 30
0.0
 11
-18.36460436299512
 21
11.83441984774003
 31
0.0
  0
LINE
  5
F6
330
E1
100
AcDbEntity
  8
@Tabelka
370
40
100
AcDbLine
 10
-81.49999999999858
 20
11.83441984774026
 30
0.0
 11
-1.499999999998636
 21
11.83441984774026
 31
0.0
  0
MTEXT
  5
F7
330
E1
100
AcDbEntity
  8
@Tabelka
100
AcDbMText
 10
-17.46583129775581
 20
20.66286024674377
 30
0.0
 40
1.3
 41
0.0
 46
0.0
 71
4
  1
{\fLato Light|b1|i0|c238|p34;Data:}
 73
2
 44
0.9461538461538461
  0
LINE
  5
F8
330
E1
100
AcDbEntity
  8
@Tabelka
370
40
100
AcDbLine
 10
-81.49999999999858
 20
32.27439565114923
 30
0.0
 11
-18.36460436299558
 21
32.27439565114923
 31
0.0
  0
LINE
  5
F9
330
E1
100
AcDbEntity
  8
@Tabelka
370
40
100
AcDbLine
 10
-81.49999999999858
 20
22.05395339326628
 30
0.0
 11
-18.36460436299558
 21
22.05395339326628
 31
0.0
  0
LINE
  5
FA
330
E1
100
AcDbEntity
  8
@Tabelka
370
40
100
AcDbLine
 10
-18.36460436299558
 20
32.27439565114923
 30
0.0
 11
-18.36460436299558
 21
22.05395339326628
 31
0.0
  0
LINE
  5
FB
330
E1
100
AcDbEntity
  8
@Tabelka
370
40
100
AcDbLine
 10
-51.28965140882383
 20
11.83441984774026
 30
0.0
 11
-51.28965140882383
 21
22.05395339326628
 31
0.0
  0
LINE
  5
FC
330
E1
100
AcDbEntity
  8
@Tabelka
370
40
100
AcDbLine
 10
-68.47763472453107
 20
11.83441984774026
 30
0.0
 11
-68.47763472453107
 21
22.05395339326628
 31
0.0
  0
MTEXT
  5
FD
330
E1
100
AcDbEntity
  8
@Tabelka
100
AcDbMText
 10
-50.39087834358406
 20
20.57145862161928
 30
0.0
 40
1.3
 41
0.0
 46
0.0
 71
4
  1
{\fLato Light|b1|i0|c238|p34;Nazwa rysunku:}
 73
2
 44
0.9461538461538461
  0
MTEXT
  5
FE
330
E1
100
AcDbEntity
  8
@Tabelka
100
AcDbMText
 10
-80.60122693475927
 20
20.662860246744
 30
0.0
 40
1.3
 41
0.0
 46
0.0
 71
4
  1
{\fLato Light|b1|i0|c238|p34;Nr rysunku:}
 73
2
 44
0.9461538461538461
  0
MTEXT
  5
FF
330
E1
100
AcDbEntity
  8
@Tabelka
100
AcDbMText
 10
-67.57886165929176
 20
20.662860246744
 30
0.0
 40
1.3
 41
0.0
 46
0.0
 71
4
  1
{\fLato Light|b1|i0|c238|p34;Skala:}
 73
2
 44
0.9461538461538461
  0
MTEXT
  5
100
330
E1
100
AcDbEntity
  8
@Tabelka
100
AcDbMText
 10
-80.60122693475927
 20
30.88330250462672
 30
0.0
 40
1.3
 41
8.645594157557625
 46
0.0
 71
4
  1
{\fLato Light|b1|i0|c238|p34;Stadium:}
 73
2
 44
0.9461538461538461
  0
MTEXT
  5
101
330
E1
100
AcDbEntity
  8
@Tabelka
100
AcDbMText
 10
-17.46583129775627
 20
30.88330250462672
 30
0.0
 40
1.3
 41
0.0
 46
0.0
 71
4
  1
{\fLato Light|b1|i0|c238|p34;Branża:}
 73
2
 44
0.9461538461538461
  0
MTEXT
  5
102
330
E1
100
AcDbEntity
  8
@Tabelka
100
AcDbMText
 10
-9.932302181496652
 20
15.55309347398087
 30
0.0
 40
2.0
 41
0.0
 46
0.0
 71
5
  1
10.2026
 73
2
 44
0.825
  0
MTEXT
  5
103
330
E1
100
AcDbEntity
  8
@Tabelka
100
AcDbMText
 10
-9.596801998600313
 20
25.53264476439129
 30
0.0
 40
2.0
 41
0.0
 46
0.0
 71
5
  1
{\fLato Light|b1|i0|c238|p34;\W0.8;Telekomunikacja}
 73
2
 44
0.7687499999999997
  0
MTEXT
  5
104
330
E1
100
AcDbEntity
  8
@Tabelka
100
AcDbMText
 10
-80.26572675186202
 20
26.55825244111074
 30
0.0
 40
1.5
 41
0.0
 46
0.0
 71
4
  1
Wystąpienie o warunki techniczne
 73
2
 44
0.8249999999999998
  0
LWPOLYLINE
  5
105
330
E1
100
AcDbEntity
  8
@KonstrTabelki
100
AcDbPolyline
 90
2
 70
0
 10
-51.28965140882337
 20
11.83441984774026
 10
-51.28965140882337
 20
22.05395339326628
  0
LINE
  5
106
330
E1
100
AcDbEntity
  8
@Tabelka
370
40
100
AcDbLine
 10
-81.49999999999812
 20
1.499999999999766
 30
0.0
 11
-1.499999999998181
 21
1.499999999999766
 31
0.0
  0
LINE
  5
107
330
E1
100
AcDbEntity
  8
@Tabelka
370
40
100
AcDbLine
 10
-81.49999999999812
 20
1.499999999999766
 30
0.0
 11
-1.499999999998181
 21
1.499999999999766
 31
0.0
  0
MTEXT
  5
108
330
E1
100
AcDbEntity
  8
@Tabelka
100
AcDbMText
 10
-41.49999999999767
 20
51.26839831296002
 30
0.0
 40
2.0
 41
0.0
 46
0.0
 71
2
  1
InterWan Sp z.o.o.\Pul. Lazurowa 1, 05-331 Dębę Wielkie
  7
LEGENDA
 73
2
 44
0.8250000000000001
  0
ENDBLK
  5
E3
330
E1
100
AcDbEntity
  8
0
100
AcDbBlockEnd
  0
BLOCK
  5
D7
330
D6
100
AcDbEntity
  8
0
100
AcDbBlockBegin
  2
*Paper_Space
 70
0
 10
0.0
 20
0.0
 30
0.0
  3
*Paper_Space
  1

  0
ENDBLK
  5
D8
330
D6
100
AcDbEntity
  8
0
100
AcDbBlockEnd
  0
ENDSEC
  0
SECTION
  2
ENTITIES
  0
IMAGE
  5
8E
330
17
100
AcDbEntity
  8
WT_podklad
100
AcDbRasterImage
 90
0
 10
7539097.794195155
 20
5786427.612821416
 30
0.0
 11
1.4632752024580598
 21
0.0
 31
0.0
 12
8.959976464809791e-17
 22
1.4632752024580598
 32
0.0
 13
2698.0
 23
1961.0
340
8D
 70
3
280
0
281
50
282
50
283
0
360
8F
 71
1
 91
2
 14
-0.5
 24
-0.5
 14
2697.5
 24
1960.5
290
0
  0
LWPOLYLINE
  5
91
330
17
100
AcDbEntity
  8
WT_trasa
370
50
100
AcDbPolyline
 90
17
 70
0
 10
7541088.857
 20
5787634.415
 10
7541125.554999999
 20
5787622.438
 10
7541164.607
 20
5787609.767
 10
7541214.641
 20
5787593.136999999
 10
7541262.038
 20
5787577.948
 10
7541310.723
 20
5787562.194000001
 10
7541358.936
 20
5787546.706
 10
7541401.747
 20
5787532.871
 10
7541449.69
 20
5787517.311
 10
7541498.114000001
 20
5787501.684999999
 10
7541546.087
 20
5787486.165
 10
7541593.809
 20
5787470.565999999
 10
7541641.464
 20
5787455.022
 10
7541688.854
 20
5787439.949000001
 10
7541729.189443469
 20
5787427.090689546
 10
7541766.81
 20
5787415.08
 10
7541820.25
 20
5787430.69
  0
LWPOLYLINE
  5
92
330
17
100
AcDbEntity
  8
WT_trasa
370
50
100
AcDbPolyline
 90
7
 70
0
 10
7541927.332
 20
5787506.488
 10
7541941.983
 20
5787555.724999999
 10
7541956.495
 20
5787604.841
 10
7541960.74
 20
5787619.69
 10
7541927.78
 20
5787629.9
 10
7541897.284
 20
5787640.988
 10
7541886.534
 20
5787668.950000001
  0
LWPOLYLINE
  5
93
330
17
100
AcDbEntity
  8
WT_trasa
370
50
100
AcDbPolyline
 90
13
 70
0
 10
7541963.86
 20
5787964.59
 10
7541972.419
 20
5788001.157999999
 10
7541981.230000001
 20
5788039.41
 10
7541989.889999999
 20
5788077.239999999
 10
7541999.659
 20
5788121.331000001
 10
7542009.619
 20
5788167.525000001
 10
7542019.139000001
 20
5788218.196999999
 10
7542028.41
 20
5788269.976999999
 10
7542036.774
 20
5788321.331
 10
7542045.684000001
 20
5788373.419
 10
7542045.990752443
 20
5788397.483906576
 10
7542053.104
 20
5788426.176
 10
7542064.05276101
 20
5788472.737329097
  0
LWPOLYLINE
  5
94
330
17
100
AcDbEntity
  8
WT_trasa
370
50
100
AcDbPolyline
 90
3
 70
0
 10
7541999.971
 20
5787750.703
 10
7542012.686481115
 20
5787795.642488731
 10
7541950.536999999
 20
5787819.934999999
  0
LWPOLYLINE
  5
95
330
17
100
AcDbEntity
  8
WT_trasa
370
50
100
AcDbPolyline
 90
9
 70
0
 10
7542064.05276101
 20
5788472.737329097
 10
7542099.768
 20
5788459.89
 10
7542137.320000001
 20
5788444.871
 10
7542179.515
 20
5788429.762
 10
7542221.048000001
 20
5788414.719
 10
7542257.977
 20
5788388.01
 10
7542310.069
 20
5788368.75
 10
7542361.266070645
 20
5788350.305872239
 10
7542402.74
 20
5788335.036999999
  0
LWPOLYLINE
  5
96
330
17
100
AcDbEntity
  8
WT_trasa
370
50
100
AcDbPolyline
 90
5
 70
0
 10
7542064.05276101
 20
5788472.737329097
 10
7542023.198999999
 20
5788486.235999999
 10
7541979.185999999
 20
5788501.773
 10
7541956.628
 20
5788509.828
 10
7541931.915
 20
5788518.497
  0
LWPOLYLINE
  5
97
330
17
100
AcDbEntity
  8
WT_trasa
370
50
100
AcDbPolyline
 90
11
 70
0
 10
7541931.915
 20
5788518.497
 10
7541883.853999999
 20
5788535.305999999
 10
7541829.401
 20
5788538.309999999
 10
7541795.412519308
 20
5788559.645875006
 10
7541753.712000001
 20
5788567.828999999
 10
7541713.134
 20
5788575.559
 10
7541675.493999999
 20
5788583.529
 10
7541642.317838316
 20
5788590.744980418
 10
7541600.263
 20
5788617.111999999
 10
7541558.715104591
 20
5788643.22369517
 10
7541551.301000001
 20
5788632.685
  0
LWPOLYLINE
  5
98
330
17
100
AcDbEntity
  8
WT_trasa
370
50
100
AcDbPolyline
 90
2
 70
0
 10
7541931.915
 20
5788518.497
 10
7541932.238000001
 20
5788502.218000001
  0
LWPOLYLINE
  5
99
330
17
100
AcDbEntity
  8
WT_trasa
370
50
100
AcDbPolyline
 90
4
 70
0
 10
7541551.301000001
 20
5788632.685
 10
7541508.440000001
 20
5788660.693999999
 10
7541457.777
 20
5788693.315
 10
7541421.86
 20
5788717.09
  0
LWPOLYLINE
  5
9A
330
17
100
AcDbEntity
  8
WT_trasa
370
50
100
AcDbPolyline
 90
12
 70
0
 10
7541551.301000001
 20
5788632.685
 10
7541530.040560809
 20
5788603.383104766
 10
7541517.327104187
 20
5788585.97398667
 10
7541467.236569578
 20
5788584.07489989
 10
7541422.289943688
 20
5788582.035305936
 10
7541371.05987931
 20
5788580.947767254
 10
7541324.530146722
 20
5788579.501436144
 10
7541279.60012464
 20
5788577.96210665
 10
7541228.25
 20
5788576.339999999
 10
7541182.520033232
 20
5788575.125923772
 10
7541143.159966767
 20
5788574.484076227
 10
7541102.482110943
 20
5788573.450558138
  0
LWPOLYLINE
  5
9B
330
17
100
AcDbEntity
  8
WT_trasa
370
50
100
AcDbPolyline
 90
4
 70
0
 10
7542402.74
 20
5788335.036999999
 10
7542450.232780358
 20
5788318.456181973
 10
7542498.052964369
 20
5788300.45662139
 10
7542541.585
 20
5788282.306
  0
LWPOLYLINE
  5
9C
330
17
100
AcDbEntity
  8
WT_trasa
370
50
100
AcDbPolyline
 90
4
 70
0
 10
7542402.74
 20
5788335.036999999
 10
7542410.555
 20
5788319.999
 10
7542400.619
 20
5788280.316
 10
7542393.65
 20
5788252.530000001
  0
LWPOLYLINE
  5
9D
330
17
100
AcDbEntity
  8
WT_trasa
370
50
100
AcDbPolyline
 90
2
 70
0
 10
7542108.454
 20
5788576.497
 10
7542116.060331634
 20
5788604.008173202
  0
LWPOLYLINE
  5
9E
330
17
100
AcDbEntity
  8
WT_trasa
370
50
100
AcDbPolyline
 90
3
 70
0
 10
7542116.060331634
 20
5788604.008173202
 10
7542129.023
 20
5788653.378
 10
7542142.292750216
 20
5788703.09528084
  0
LWPOLYLINE
  5
9F
330
17
100
AcDbEntity
  8
WT_trasa
370
50
100
AcDbPolyline
 90
20
 70
0
 10
7542116.060331634
 20
5788604.008173202
 10
7542140.653
 20
5788598.812
 10
7542170.619
 20
5788592.599000001
 10
7542199.433
 20
5788586.708
 10
7542229.31
 20
5788580.484
 10
7542259.10257583
 20
5788574.410913598
 10
7542313.14
 20
5788560.668999999
 10
7542360.544
 20
5788543.139
 10
7542409.886
 20
5788524.877999999
 10
7542456.634999999
 20
5788507.04
 10
7542498.090113379
 20
5788492.292408982
 10
7542538.904
 20
5788466.735
 10
7542582.755
 20
5788439.743
 10
7542626.385
 20
5788413.085
 10
7542664.953
 20
5788389.508999999
 10
7542693.27
 20
5788372.240000001
 10
7542726.2
 20
5788351.999
 10
7542759.194
 20
5788331.725
 10
7542798.551
 20
5788307.832
 10
7542825.462
 20
5788294.159000001
  0
LWPOLYLINE
  5
A0
330
17
100
AcDbEntity
  8
WT_trasa
370
50
100
AcDbPolyline
 90
2
 70
0
 10
7542142.292750216
 20
5788703.09528084
 10
7542109.097818186
 20
5788711.424825829
  0
LWPOLYLINE
  5
A1
330
17
100
AcDbEntity
  8
WT_trasa
370
50
100
AcDbPolyline
 90
3
 70
0
 10
7542142.292750216
 20
5788703.09528084
 10
7542158.512000001
 20
5788771.376
 10
7542181.493000001
 20
5788853.342000001
  0
LWPOLYLINE
  5
A2
330
17
100
AcDbEntity
  8
WT_trasa
370
50
100
AcDbPolyline
 90
4
 70
0
 10
7542181.493000001
 20
5788853.342000001
 10
7542196.609
 20
5788908.338999999
 10
7542211.360000001
 20
5788962.74
 10
7542224.43
 20
5789010.9
  0
LWPOLYLINE
  5
A3
330
17
100
AcDbEntity
  8
WT_trasa
370
50
100
AcDbPolyline
 90
10
 70
0
 10
7542181.493000001
 20
5788853.342000001
 10
7542234.064
 20
5788868.821000001
 10
7542260.827999999
 20
5788885.446
 10
7542338.084999999
 20
5788906.865
 10
7542391.986
 20
5788922.445999999
 10
7542446.471
 20
5788938.531000001
 10
7542500.821
 20
5788954.476999999
 10
7542555.933
 20
5788970.758
 10
7542607.230000001
 20
5788986.803
 10
7542660.54
 20
5789002.88
  0
LWPOLYLINE
  5
A4
330
17
100
AcDbEntity
  8
WT_trasa
370
50
100
AcDbPolyline
 90
16
 70
0
 10
7542224.43
 20
5789010.9
 10
7542238.88
 20
5789066.33
 10
7542205.323000001
 20
5789074.824
 10
7542179.467000001
 20
5789081.415
 10
7542131.363
 20
5789093.403
 10
7542082.927
 20
5789105.392
 10
7542053.230000001
 20
5789112.959999999
 10
7542017.56
 20
5789122.019999999
 10
7541972.937
 20
5789133.943
 10
7541932.559000001
 20
5789142.974999999
 10
7541893.881
 20
5789155.058
 10
7541856.227000001
 20
5789166.639000001
 10
7541810.528
 20
5789184.503999999
 10
7541765.934999999
 20
5789197.147
 10
7541718.232
 20
5789211.148
 10
7541671.983
 20
5789224.789
  0
LWPOLYLINE
  5
A5
330
17
100
AcDbEntity
  8
WT_trasa
370
50
100
AcDbPolyline
 90
2
 70
0
 10
7542224.43
 20
5789010.9
 10
7542208.793661494
 20
5788999.996914149
  0
LWPOLYLINE
  5
A6
330
17
100
AcDbEntity
  8
WT_trasa
370
50
100
AcDbPolyline
 90
4
 70
0
 10
7542747.63
 20
5788201.45
 10
7542787.230000001
 20
5788184.79
 10
7542819.91
 20
5788174.599999999
 10
7542827.58
 20
5788188.769999999
  0
LWPOLYLINE
  5
A7
330
17
100
AcDbEntity
  8
WT_trasa
370
50
100
AcDbPolyline
 90
8
 70
0
 10
7541067.496000001
 20
5788952.951000001
 10
7541111.929999999
 20
5788927.81
 10
7541157.132000001
 20
5788901.349
 10
7541200.781000001
 20
5788877.984
 10
7541242.369999999
 20
5788848.7
 10
7541286.296
 20
5788820.849999999
 10
7541326.049
 20
5788796.463000001
 10
7541366.367000001
 20
5788771.449000001
  0
LWPOLYLINE
  5
A8
330
17
100
AcDbEntity
  8
WT_trasa
370
50
100
AcDbPolyline
 90
2
 70
0
 10
7540966.579
 20
5789021.842000001
 10
7540999.297
 20
5789000.22
  0
LWPOLYLINE
  5
AA
330
17
100
AcDbEntity
  8
WT_arkusze
370
35
100
AcDbPolyline
 90
4
 70
1
 10
7541076.822039029
 20
5787363.31068857
 10
7541471.579
 20
5787363.31068857
 10
7541471.579
 20
5787650.140183456
 10
7541076.822039029
 20
5787650.140183456
  0
MTEXT
  5
AB
330
17
100
AcDbEntity
  8
WT_arkusze
100
AcDbMText
 10
7541274.200519514
 20
5787506.725436013
 30
0.0
 40
40.0
 71
5
  1
1
  0
LWPOLYLINE
  5
AC
330
17
100
AcDbEntity
  8
WT_arkusze
370
35
100
AcDbPolyline
 90
4
 70
1
 10
7541316.822039029
 20
5787273.31068857
 10
7541711.579
 20
5787273.31068857
 10
7541711.579
 20
5787560.140183456
 10
7541316.822039029
 20
5787560.140183456
  0
MTEXT
  5
AD
330
17
100
AcDbEntity
  8
WT_arkusze
100
AcDbMText
 10
7541514.200519514
 20
5787416.725436013
 30
0.0
 40
40.0
 71
5
  1
2
  0
LWPOLYLINE
  5
AE
330
17
100
AcDbEntity
  8
WT_arkusze
370
35
100
AcDbPolyline
 90
4
 70
1
 10
7541586.822039029
 20
5787393.31068857
 10
7541981.579
 20
5787393.31068857
 10
7541981.579
 20
5787680.140183456
 10
7541586.822039029
 20
5787680.140183456
  0
MTEXT
  5
AF
330
17
100
AcDbEntity
  8
WT_arkusze
100
AcDbMText
 10
7541784.200519514
 20
5787536.725436013
 30
0.0
 40
40.0
 71
5
  1
3
  0
LWPOLYLINE
  5
B0
330
17
100
AcDbEntity
  8
WT_arkusze
370
35
100
AcDbPolyline
 90
4
 70
1
 10
7541631.822039029
 20
5787543.31068857
 10
7542026.579
 20
5787543.31068857
 10
7542026.579
 20
5787830.140183456
 10
7541631.822039029
 20
5787830.140183456
  0
MTEXT
  5
B1
330
17
100
AcDbEntity
  8
WT_arkusze
100
AcDbMText
 10
7541829.200519514
 20
5787686.725436013
 30
0.0
 40
40.0
 71
5
  1
4
  0
LWPOLYLINE
  5
B2
330
17
100
AcDbEntity
  8
WT_arkusze
370
35
100
AcDbPolyline
 90
4
 70
1
 10
7541736.822039029
 20
5787948.31068857
 10
7542131.579
 20
5787948.31068857
 10
7542131.579
 20
5788235.140183456
 10
7541736.822039029
 20
5788235.140183456
  0
MTEXT
  5
B3
330
17
100
AcDbEntity
  8
WT_arkusze
100
AcDbMText
 10
7541934.200519514
 20
5788091.725436013
 30
0.0
 40
40.0
 71
5
  1
5
  0
LWPOLYLINE
  5
B4
330
17
100
AcDbEntity
  8
WT_arkusze
370
35
100
AcDbPolyline
 90
4
 70
1
 10
7541766.822039029
 20
5788083.31068857
 10
7542161.579
 20
5788083.31068857
 10
7542161.579
 20
5788370.140183456
 10
7541766.822039029
 20
5788370.140183456
  0
MTEXT
  5
B5
330
17
100
AcDbEntity
  8
WT_arkusze
100
AcDbMText
 10
7541964.200519514
 20
5788226.725436013
 30
0.0
 40
40.0
 71
5
  1
6
  0
LWPOLYLINE
  5
B6
330
17
100
AcDbEntity
  8
WT_arkusze
370
35
100
AcDbPolyline
 90
4
 70
1
 10
7541796.822039029
 20
5788248.31068857
 10
7542191.579
 20
5788248.31068857
 10
7542191.579
 20
5788535.140183456
 10
7541796.822039029
 20
5788535.140183456
  0
MTEXT
  5
B7
330
17
100
AcDbEntity
  8
WT_arkusze
100
AcDbMText
 10
7541994.200519514
 20
5788391.725436013
 30
0.0
 40
40.0
 71
5
  1
7
  0
LWPOLYLINE
  5
B8
330
17
100
AcDbEntity
  8
WT_arkusze
370
35
100
AcDbPolyline
 90
4
 70
1
 10
7542021.822039029
 20
5788338.31068857
 10
7542416.579
 20
5788338.31068857
 10
7542416.579
 20
5788625.140183456
 10
7542021.822039029
 20
5788625.140183456
  0
MTEXT
  5
B9
330
17
100
AcDbEntity
  8
WT_arkusze
100
AcDbMText
 10
7542219.200519514
 20
5788481.725436013
 30
0.0
 40
40.0
 71
5
  1
8
  0
LWPOLYLINE
  5
BA
330
17
100
AcDbEntity
  8
WT_arkusze
370
35
100
AcDbPolyline
 90
4
 70
1
 10
7542156.822039029
 20
5788293.31068857
 10
7542551.579
 20
5788293.31068857
 10
7542551.579
 20
5788580.140183456
 10
7542156.822039029
 20
5788580.140183456
  0
MTEXT
  5
BB
330
17
100
AcDbEntity
  8
WT_arkusze
100
AcDbMText
 10
7542354.200519514
 20
5788436.725436013
 30
0.0
 40
40.0
 71
5
  1
9
  0
LWPOLYLINE
  5
BC
330
17
100
AcDbEntity
  8
WT_arkusze
370
35
100
AcDbPolyline
 90
4
 70
1
 10
7541556.822039029
 20
5788368.31068857
 10
7541951.579
 20
5788368.31068857
 10
7541951.579
 20
5788655.140183456
 10
7541556.822039029
 20
5788655.140183456
  0
MTEXT
  5
BD
330
17
100
AcDbEntity
  8
WT_arkusze
100
AcDbMText
 10
7541754.200519514
 20
5788511.725436013
 30
0.0
 40
40.0
 71
5
  1
10
  0
LWPOLYLINE
  5
BE
330
17
100
AcDbEntity
  8
WT_arkusze
370
35
100
AcDbPolyline
 90
4
 70
1
 10
7541271.822039029
 20
5788368.31068857
 10
7541666.579
 20
5788368.31068857
 10
7541666.579
 20
5788655.140183456
 10
7541271.822039029
 20
5788655.140183456
  0
MTEXT
  5
BF
330
17
100
AcDbEntity
  8
WT_arkusze
100
AcDbMText
 10
7541469.200519514
 20
5788511.725436013
 30
0.0
 40
40.0
 71
5
  1
11
  0
LWPOLYLINE
  5
C0
330
17
100
AcDbEntity
  8
WT_arkusze
370
35
100
AcDbPolyline
 90
4
 70
1
 10
7541166.822039029
 20
5788443.31068857
 10
7541561.579
 20
5788443.31068857
 10
7541561.579
 20
5788730.140183456
 10
7541166.822039029
 20
5788730.140183456
  0
MTEXT
  5
C1
330
17
100
AcDbEntity
  8
WT_arkusze
100
AcDbMText
 10
7541364.200519514
 20
5788586.725436013
 30
0.0
 40
40.0
 71
5
  1
12
  0
LWPOLYLINE
  5
C2
330
17
100
AcDbEntity
  8
WT_arkusze
370
35
100
AcDbPolyline
 90
4
 70
1
 10
7540896.822039029
 20
5788308.31068857
 10
7541291.579
 20
5788308.31068857
 10
7541291.579
 20
5788595.140183456
 10
7540896.822039029
 20
5788595.140183456
  0
MTEXT
  5
C3
330
17
100
AcDbEntity
  8
WT_arkusze
100
AcDbMText
 10
7541094.200519514
 20
5788451.725436013
 30
0.0
 40
40.0
 71
5
  1
13
  0
LWPOLYLINE
  5
C4
330
17
100
AcDbEntity
  8
WT_arkusze
370
35
100
AcDbPolyline
 90
4
 70
1
 10
7542381.822039029
 20
5788233.31068857
 10
7542776.579
 20
5788233.31068857
 10
7542776.579
 20
5788520.140183456
 10
7542381.822039029
 20
5788520.140183456
  0
MTEXT
  5
C5
330
17
100
AcDbEntity
  8
WT_arkusze
100
AcDbMText
 10
7542579.200519514
 20
5788376.725436013
 30
0.0
 40
40.0
 71
5
  1
14
  0
LWPOLYLINE
  5
C6
330
17
100
AcDbEntity
  8
WT_arkusze
370
35
100
AcDbPolyline
 90
4
 70
1
 10
7541886.822039029
 20
5788578.31068857
 10
7542281.579
 20
5788578.31068857
 10
7542281.579
 20
5788865.140183456
 10
7541886.822039029
 20
5788865.140183456
  0
MTEXT
  5
C7
330
17
100
AcDbEntity
  8
WT_arkusze
100
AcDbMText
 10
7542084.200519514
 20
5788721.725436013
 30
0.0
 40
40.0
 71
5
  1
15
  0
LWPOLYLINE
  5
C8
330
17
100
AcDbEntity
  8
WT_arkusze
370
35
100
AcDbPolyline
 90
4
 70
1
 10
7542576.822039029
 20
5788113.31068857
 10
7542971.579
 20
5788113.31068857
 10
7542971.579
 20
5788400.140183456
 10
7542576.822039029
 20
5788400.140183456
  0
MTEXT
  5
C9
330
17
100
AcDbEntity
  8
WT_arkusze
100
AcDbMText
 10
7542774.200519514
 20
5788256.725436013
 30
0.0
 40
40.0
 71
5
  1
16
  0
LWPOLYLINE
  5
CA
330
17
100
AcDbEntity
  8
WT_arkusze
370
35
100
AcDbPolyline
 90
4
 70
1
 10
7542111.822039029
 20
5788833.31068857
 10
7542506.579
 20
5788833.31068857
 10
7542506.579
 20
5789120.140183456
 10
7542111.822039029
 20
5789120.140183456
  0
MTEXT
  5
CB
330
17
100
AcDbEntity
  8
WT_arkusze
100
AcDbMText
 10
7542309.200519514
 20
5788976.725436013
 30
0.0
 40
40.0
 71
5
  1
17
  0
LWPOLYLINE
  5
CC
330
17
100
AcDbEntity
  8
WT_arkusze
370
35
100
AcDbPolyline
 90
4
 70
1
 10
7541841.822039029
 20
5788863.31068857
 10
7542236.579
 20
5788863.31068857
 10
7542236.579
 20
5789150.140183456
 10
7541841.822039029
 20
5789150.140183456
  0
MTEXT
  5
CD
330
17
100
AcDbEntity
  8
WT_arkusze
100
AcDbMText
 10
7542039.200519514
 20
5789006.725436013
 30
0.0
 40
40.0
 71
5
  1
18
  0
LWPOLYLINE
  5
CE
330
17
100
AcDbEntity
  8
WT_arkusze
370
35
100
AcDbPolyline
 90
4
 70
1
 10
7542276.822039029
 20
5788728.31068857
 10
7542671.579
 20
5788728.31068857
 10
7542671.579
 20
5789015.140183456
 10
7542276.822039029
 20
5789015.140183456
  0
MTEXT
  5
CF
330
17
100
AcDbEntity
  8
WT_arkusze
100
AcDbMText
 10
7542474.200519514
 20
5788871.725436013
 30
0.0
 40
40.0
 71
5
  1
19
  0
LWPOLYLINE
  5
D0
330
17
100
AcDbEntity
  8
WT_arkusze
370
35
100
AcDbPolyline
 90
4
 70
1
 10
7541661.822039029
 20
5788953.31068857
 10
7542056.579
 20
5788953.31068857
 10
7542056.579
 20
5789240.140183456
 10
7541661.822039029
 20
5789240.140183456
  0
MTEXT
  5
D1
330
17
100
AcDbEntity
  8
WT_arkusze
100
AcDbMText
 10
7541859.200519514
 20
5789096.725436013
 30
0.0
 40
40.0
 71
5
  1
20
  0
LWPOLYLINE
  5
D2
330
17
100
AcDbEntity
  8
WT_arkusze
370
35
100
AcDbPolyline
 90
4
 70
1
 10
7540986.822039029
 20
5788683.31068857
 10
7541381.579
 20
5788683.31068857
 10
7541381.579
 20
5788970.140183456
 10
7540986.822039029
 20
5788970.140183456
  0
MTEXT
  5
D3
330
17
100
AcDbEntity
  8
WT_arkusze
100
AcDbMText
 10
7541184.200519514
 20
5788826.725436013
 30
0.0
 40
40.0
 71
5
  1
21
  0
LWPOLYLINE
  5
D4
330
17
100
AcDbEntity
  8
WT_arkusze
370
35
100
AcDbPolyline
 90
4
 70
1
 10
7540626.822039029
 20
5788758.31068857
 10
7541021.579
 20
5788758.31068857
 10
7541021.579
 20
5789045.140183456
 10
7540626.822039029
 20
5789045.140183456
  0
MTEXT
  5
D5
330
17
100
AcDbEntity
  8
WT_arkusze
100
AcDbMText
 10
7540824.200519514
 20
5788901.725436013
 30
0.0
 40
40.0
 71
5
  1
22
  0
INSERT
  5
DA
330
D6
100
AcDbEntity
 67
1
  8
0
100
AcDbBlockReference
  2
tabelka
 10
395.0000000000001
 20
2.9e-15
 30
0.0
  0
MTEXT
  5
DC
330
D6
100
AcDbEntity
 67
1
  8
0
 62
1
100
AcDbMText
 10
344.6091216564147
 20
15.55309347398088
 30
1.0
 40
1.6
 41
26.35767255594817
 46
0.0
 71
4
 72
5
  1
{\C18;\c0;Plan orientacyjny - układ arkusza}
  7
LEGENDA
  0
MTEXT
  5
DD
330
D6
100
AcDbEntity
 67
1
  8
0
100
AcDbMText
 10
319.9690462899527
 20
15.55309347398065
 30
0.0
 40
2.0
 41
0.0
 46
0.0
 71
5
  1
0.A
  7
LEGENDA
 73
2
 44
0.825
  0
MTEXT
  5
DE
330
D6
100
AcDbEntity
 67
1
  8
0
100
AcDbMText
 10
335.1163569333218
 20
15.55309347398099
 30
0.0
 40
2.0
 41
0.0
 46
0.0
 71
5
  1
1:10 000
  7
LEGENDA
 73
2
 44
0.825
  0
MTEXT
  5
DF
330
D6
100
AcDbEntity
 67
1
  8
0
 62
18
420
0
100
AcDbMText
 10
314.3156635992853
 20
41.45822050247557
 30
0.0
 40
2.0
 41
76.95582950157221
 46
0.0
 71
1
  1
\pxsm1.15,ql;{\fLato Light|b0|i0|c238|p34;\C256;Projektowane podwieszenie światłowodu na istn. słupach nN w miejscowościach Leontyna, Mistów}
  7
LEGENDA
 73
2
 44
0.825
  0
LWPOLYLINE
  5
E0
330
D6
100
AcDbEntity
 67
1
  8
0
100
AcDbPolyline
 90
4
 70
1
 10
395.0
 20
7e-16
 10
0.2430390289584352
 20
7e-16
 10
0.2430390289584405
 20
286.8294948860808
 10
395.0
 20
286.8294948860808
  0
VIEWPORT
  5
10D
330
D6
100
AcDbEntity
 67
1
  8
VIEWPORTS
100
AcDbViewport
 10
197.3784804856405
 20
143.4147474430501
 30
0.0
 40
394.7569609712809
 41
286.8294948861003
 68
2
 69
3
 12
7541071.579000011
 22
5787862.948019005
 13
0.0
 23
0.0
 14
10.0
 24
10.0
 15
10.0
 25
10.0
 16
0.0
 26
0.0
 36
1.0
 17
0.0
 27
0.0
 37
0.0
 42
50.0
 43
0.0
 44
0.0
 45
2868.294948861003
 50
0.0
 51
0.0
 72
100
 90
573536
  1

281
0
 71
0
 74
0
110
0.0
120
0.0
130
0.0
111
1.0
121
0.0
131
0.0
112
0.0
122
1.0
132
0.0
 79
0
146
0.0
282
0
  0
MTEXT
  5
10E
330
D6
100
AcDbEntity
 67
1
  8
0
100
AcDbMText
 10
3.000000000000057
 20
2.999999999999943
 30
0.0
 40
1.8
 71
1
  1
Podkład: © autorzy OpenStreetMap (openstreetmap.org/copyright)
  0
ENDSEC
  0
SECTION
  2
OBJECTS
  0
DICTIONARY
  5
A
330
0
100
AcDbDictionary
281
1
  3
ACAD_COLOR
350
B
  3
ACAD_GROUP
350
C
  3
ACAD_LAYOUT
350
D
  3
ACAD_MATERIAL
350
E
  3
ACAD_MLEADERSTYLE
350
F
  3
ACAD_MLINESTYLE
350
10
  3
ACAD_PLOTSETTINGS
350
11
  3
ACAD_PLOTSTYLENAME
350
12
  3
ACAD_SCALELIST
350
14
  3
ACAD_TABLESTYLE
350
15
  3
ACAD_VISUALSTYLE
350
16
  3
EZDXF_META
350
2D
  3
ACAD_IMAGE_VARS
350
8B
  3
ACAD_IMAGE_DICT
350
8C
  0
DICTIONARY
  5
B
330
A
100
AcDbDictionary
281
1
  0
DICTIONARY
  5
C
330
A
100
AcDbDictionary
281
1
  0
DICTIONARY
  5
D
330
A
100
AcDbDictionary
281
1
  3
Model
350
1A
  3
0.A
350
D9
  0
DICTIONARY
  5
E
330
A
100
AcDbDictionary
281
1
  3
ByBlock
350
1F
  3
ByLayer
350
20
  3
Global
350
21
  0
DICTIONARY
  5
F
330
A
100
AcDbDictionary
281
1
  3
Standard
350
2C
  0
DICTIONARY
  5
10
330
A
100
AcDbDictionary
281
1
  3
Standard
350
22
  0
DICTIONARY
  5
11
330
A
100
AcDbDictionary
281
1
  0
ACDBDICTIONARYWDFLT
  5
12
330
A
100
AcDbDictionary
281
1
  3
Normal
350
13
100
AcDbDictionaryWithDefault
340
13
  0
ACDBPLACEHOLDER
  5
13
330
12
  0
DICTIONARY
  5
14
330
A
100
AcDbDictionary
281
1
  0
DICTIONARY
  5
15
330
A
100
AcDbDictionary
281
1
  0
DICTIONARY
  5
16
330
A
100
AcDbDictionary
281
1
  3
2dWireframe
350
5A
  3
Basic
350
5B
  3
Brighten
350
5C
  3
ColorChange
350
5D
  3
Conceptual
350
5E
  3
Dim
350
5F
  3
EdgeColorOff
350
60
  3
Facepattern
350
61
  3
Flat
350
62
  3
FlatWithEdges
350
63
  3
Gouraud
350
64
  3
GouraudWithEdges
350
65
  3
Hidden
350
66
  3
JitterOff
350
67
  3
Linepattern
350
68
  3
Modeling
350
69
  3
OverhangOff
350
6A
  3
Realistic
350
6B
  3
Shaded
350
6C
  3
Shaded with edges
350
6D
  3
Shades of Gray
350
6E
  3
Sketchy
350
6F
  3
Thicken
350
70
  3
Wireframe
350
71
  3
X-Ray
350
72
  0
LAYOUT
  5
1A
330
D
100
AcDbPlotSettings
  1

  4
A3
  6

 40
7.5
 41
20.0
 42
7.5
 43
20.0
 44
420.0
 45
297.0
 46
0.0
 47
0.0
 48
0.0
 49
0.0
140
0.0
141
0.0
142
1.0
143
1.0
 70
1024
 72
1
 73
0
 74
5
  7

 75
16
 76
0
 77
2
 78
300
147
1.0
148
0.0
149
0.0
100
AcDbLayout
  1
Model
 70
1
 71
0
 10
0.0
 20
0.0
 11
420.0
 21
297.0
 12
0.0
 22
0.0
 32
0.0
 14
1e+20
 24
1e+20
 34
1e+20
 15
-1e+20
 25
-1e+20
 35
-1e+20
146
0.0
 13
0.0
 23
0.0
 33
0.0
 16
1.0
 26
0.0
 36
0.0
 17
0.0
 27
1.0
 37
0.0
 76
1
330
17
  0
MATERIAL
  5
1F
102
{ACAD_REACTORS
330
E
102
}
330
E
100
AcDbMaterial
  1
ByBlock
  2

 70
0
 40
1.0
 71
1
 41
1.0
 91
-1023410177
 42
1.0
 72
1
  3

 73
1
 74
1
 75
1
 44
0.5
 73
0
 45
1.0
 46
1.0
 77
1
  4

 78
1
 79
1
170
1
 48
1.0
171
1
  6

172
1
173
1
174
1
140
1.0
141
1.0
175
1
  7

176
1
177
1
178
1
143
1.0
179
1
  8

270
1
271
1
272
1
145
1.0
146
1.0
273
1
  9

274
1
275
1
276
1
 42
1.0
 72
1
  3

 73
1
 74
1
 75
1
 94
63
  0
MATERIAL
  5
20
102
{ACAD_REACTORS
330
E
102
}
330
E
100
AcDbMaterial
  1
ByLayer
  2

 70
0
 40
1.0
 71
1
 41
1.0
 91
-1023410177
 42
1.0
 72
1
  3

 73
1
 74
1
 75
1
 44
0.5
 73
0
 45
1.0
 46
1.0
 77
1
  4

 78
1
 79
1
170
1
 48
1.0
171
1
  6

172
1
173
1
174
1
140
1.0
141
1.0
175
1
  7

176
1
177
1
178
1
143
1.0
179
1
  8

270
1
271
1
272
1
145
1.0
146
1.0
273
1
  9

274
1
275
1
276
1
 42
1.0
 72
1
  3

 73
1
 74
1
 75
1
 94
63
  0
MATERIAL
  5
21
102
{ACAD_REACTORS
330
E
102
}
330
E
100
AcDbMaterial
  1
Global
  2

 70
0
 40
1.0
 71
1
 41
1.0
 91
-1023410177
 42
1.0
 72
1
  3

 73
1
 74
1
 75
1
 44
0.5
 73
0
 45
1.0
 46
1.0
 77
1
  4

 78
1
 79
1
170
1
 48
1.0
171
1
  6

172
1
173
1
174
1
140
1.0
141
1.0
175
1
  7

176
1
177
1
178
1
143
1.0
179
1
  8

270
1
271
1
272
1
145
1.0
146
1.0
273
1
  9

274
1
275
1
276
1
 42
1.0
 72
1
  3

 73
1
 74
1
 75
1
 94
63
  0
MLINESTYLE
  5
22
102
{ACAD_REACTORS
330
10
102
}
330
10
100
AcDbMlineStyle
  2
Standard
 70
0
  3

 62
256
 51
90.0
 52
90.0
 71
2
 49
0.5
 62
256
  6
BYLAYER
 49
-0.5
 62
256
  6
BYLAYER
  0
MLEADERSTYLE
  5
2C
102
{ACAD_REACTORS
330
F
102
}
330
F
100
AcDbMLeaderStyle
179
2
170
2
171
1
172
0
 90
2
 40
0.0
 41
0.0
173
1
 91
-1056964608
 92
-2
290
1
 42
2.0
291
1
 43
8.0
  3
Standard
 44
4.0
300

342
29
174
1
175
1
176
0
178
1
 93
-1056964608
 45
4.0
292
0
297
0
 46
4.0
 94
-1056964608
 47
1.0
 49
1.0
140
1.0
294
1
141
0.0
177
0
142
1.0
295
0
296
0
143
3.75
271
0
272
9
273
9
  0
DICTIONARY
  5
2D
330
A
100
AcDbDictionary
280
1
281
1
  3
CREATED_BY_EZDXF
350
2E
  3
WRITTEN_BY_EZDXF
350
111
  0
DICTIONARYVAR
  5
2E
330
2D
100
DictionaryVariables
280
0
  1
1.4.4 @ 2026-10-08T22:25:23.029302+00:00
  0
VISUALSTYLE
  5
5A
102
{ACAD_REACTORS
330
16
102
}
330
16
100
AcDbVisualStyle
  2
2dWireframe
 70
4
 90
0
 40
0.6
 62
7
290
0
291
0
  0
VISUALSTYLE
  5
5B
102
{ACAD_REACTORS
330
16
102
}
330
16
100
AcDbVisualStyle
  2
Basic
 70
7
 90
1
 40
0.6
 62
7
290
0
291
1
  0
VISUALSTYLE
  5
5C
102
{ACAD_REACTORS
330
16
102
}
330
16
100
AcDbVisualStyle
  2
Brighten
 70
12
 90
2
 40
0.6
 62
7
290
0
291
1
  0
VISUALSTYLE
  5
5D
102
{ACAD_REACTORS
330
16
102
}
330
16
100
AcDbVisualStyle
  2
ColorChange
 70
16
 90
2
 40
0.6
 62
8
290
0
291
1
  0
VISUALSTYLE
  5
5E
102
{ACAD_REACTORS
330
16
102
}
330
16
100
AcDbVisualStyle
  2
Conceptual
 70
9
 90
3
 40
0.6
 62
7
290
0
291
0
  0
VISUALSTYLE
  5
5F
102
{ACAD_REACTORS
330
16
102
}
330
16
100
AcDbVisualStyle
  2
Dim
 70
11
 90
2
 40
0.6
 62
7
290
0
291
1
  0
VISUALSTYLE
  5
60
102
{ACAD_REACTORS
330
16
102
}
330
16
100
AcDbVisualStyle
  2
EdgeColorOff
 70
22
 90
2
 40
0.6
 62
7
290
0
291
1
  0
VISUALSTYLE
  5
61
102
{ACAD_REACTORS
330
16
102
}
330
16
100
AcDbVisualStyle
  2
Facepattern
 70
15
 90
2
 40
0.6
 62
7
290
0
291
1
  0
VISUALSTYLE
  5
62
102
{ACAD_REACTORS
330
16
102
}
330
16
100
AcDbVisualStyle
  2
Flat
 70
0
 90
2
 40
0.6
 62
7
290
0
291
1
  0
VISUALSTYLE
  5
63
102
{ACAD_REACTORS
330
16
102
}
330
16
100
AcDbVisualStyle
  2
FlatWithEdges
 70
1
 90
2
 40
0.6
 62
7
290
0
291
1
  0
VISUALSTYLE
  5
64
102
{ACAD_REACTORS
330
16
102
}
330
16
100
AcDbVisualStyle
  2
Gouraud
 70
2
 90
2
 40
0.6
 62
7
290
0
291
1
  0
VISUALSTYLE
  5
65
102
{ACAD_REACTORS
330
16
102
}
330
16
100
AcDbVisualStyle
  2
GouraudWithEdges
 70
3
 90
2
 40
0.6
 62
7
290
0
291
1
  0
VISUALSTYLE
  5
66
102
{ACAD_REACTORS
330
16
102
}
330
16
100
AcDbVisualStyle
  2
Hidden
 70
6
 90
1
 40
0.6
 62
7
290
0
291
0
  0
VISUALSTYLE
  5
67
102
{ACAD_REACTORS
330
16
102
}
330
16
100
AcDbVisualStyle
  2
JitterOff
 70
20
 90
2
 40
0.6
 62
7
290
0
291
1
  0
VISUALSTYLE
  5
68
102
{ACAD_REACTORS
330
16
102
}
330
16
100
AcDbVisualStyle
  2
Linepattern
 70
14
 90
2
 40
0.6
 62
7
290
0
291
1
  0
VISUALSTYLE
  5
69
102
{ACAD_REACTORS
330
16
102
}
330
16
100
AcDbVisualStyle
  2
Modeling
 70
10
 90
2
 40
0.6
 62
7
290
0
291
0
  0
VISUALSTYLE
  5
6A
102
{ACAD_REACTORS
330
16
102
}
330
16
100
AcDbVisualStyle
  2
OverhangOff
 70
21
 90
2
 40
0.6
 62
7
290
0
291
1
  0
VISUALSTYLE
  5
6B
102
{ACAD_REACTORS
330
16
102
}
330
16
100
AcDbVisualStyle
  2
Realistic
 70
8
 90
2
 40
0.6
 62
7
290
0
291
0
  0
VISUALSTYLE
  5
6C
102
{ACAD_REACTORS
330
16
102
}
330
16
100
AcDbVisualStyle
  2
Shaded
 70
27
 90
2
 40
0.6
 62
7
290
0
291
0
  0
VISUALSTYLE
  5
6D
102
{ACAD_REACTORS
330
16
102
}
330
16
100
AcDbVisualStyle
  2
Shaded with edges
 70
26
 90
2
 40
0.6
 62
7
290
0
291
0
  0
VISUALSTYLE
  5
6E
102
{ACAD_REACTORS
330
16
102
}
330
16
100
AcDbVisualStyle
  2
Shades of Gray
 70
23
 90
2
 40
0.6
 62
7
290
0
291
0
  0
VISUALSTYLE
  5
6F
102
{ACAD_REACTORS
330
16
102
}
330
16
100
AcDbVisualStyle
  2
Sketchy
 70
24
 90
1
 40
0.6
 62
7
290
0
291
0
  0
VISUALSTYLE
  5
70
102
{ACAD_REACTORS
330
16
102
}
330
16
100
AcDbVisualStyle
  2
Thicken
 70
13
 90
2
 40
0.6
 62
7
290
0
291
1
  0
VISUALSTYLE
  5
71
102
{ACAD_REACTORS
330
16
102
}
330
16
100
AcDbVisualStyle
  2
Wireframe
 70
5
 90
0
 40
0.6
 62
7
290
0
291
0
  0
VISUALSTYLE
  5
72
102
{ACAD_REACTORS
330
16
102
}
330
16
100
AcDbVisualStyle
  2
X-Ray
 70
25
 90
2
 40
0.5
 62
7
290
0
291
0
  0
RASTERVARIABLES
  5
8B
102
{ACAD_REACTORS
330
A
102
}
330
A
100
AcDbRasterVariables
 90
0
 70
0
 71
1
 72
3
  0
DICTIONARY
  5
8C
330
A
100
AcDbDictionary
281
1
  3
projekt_orientacja.jpg
350
8D
  0
IMAGEDEF
  5
8D
102
{ACAD_REACTORS
330
8C
330
8F
102
}
330
8C
100
AcDbRasterImageDef
 90
0
  1
projekt_orientacja.jpg
 10
2698.0
 20
1961.0
 11
0.01
 21
0.01
280
1
281
0
  0
IMAGEDEF_REACTOR
  5
8F
330
8E
100
AcDbRasterImageDefReactor
 90
2
330
8E
  0
LAYOUT
  5
D9
330
D
100
AcDbPlotSettings
  1

  2
DWG To PDF.pc3
  4
User69633
  6

 40
20.0
 41
5.0
 42
5.0
 43
5.0
 44
420.0
 45
297.0
 46
0.0
 47
0.0
 48
0.0
 49
0.0
140
0.0
141
0.0
142
1.0
143
1.0
 70
672
 72
1
 73
0
 74
5
  7

 75
16
 76
0
 77
2
 78
300
147
1.0
148
0.0
149
0.0
100
AcDbLayout
  1
0.A
 70
1
 71
3
 10
-20.0
 20
-5.0
 11
400.0
 21
292.0
 12
0.0
 22
0.0
 32
0.0
 14
1e+20
 24
1e+20
 34
1e+20
 15
-1e+20
 25
-1e+20
 35
-1e+20
146
0.0
 13
0.0
 23
0.0
 33
0.0
 16
1.0
 26
0.0
 36
0.0
 17
0.0
 27
1.0
 37
0.0
 76
0
330
D6
  0
DICTIONARYVAR
  5
111
330
2D
100
DictionaryVariables
280
0
  1
1.4.4 @ 2026-10-08T22:25:28.163628+00:00
  0
ENDSEC
  0
EOF
